<?xml version="1.0" encoding="UTF-8"?>
<!DOCTYPE svg PUBLIC "-//W3C//DTD SVG 1.1//EN" "http://www.w3.org/Graphics/SVG/1.1/DTD/svg11.dtd">
<svg version="1.1" xmlns="http://www.w3.org/2000/svg" xmlns:xlink="http://www.w3.org/1999/xlink" x="0" y="0" width="768" height="1024" viewBox="0, 0, 768, 1024">
  <g id="Layer_1">
    <g>
      <path d="M0.5,0.5 L12.5,0.5 L12.5,12.5 L0.5,12.5 L0.5,0.5 z" fill="#000000"/>
      <path d="M0.5,0.5 L12.5,0.5 L12.5,12.5 L0.5,12.5 L0.5,0.5 z" fill-opacity="0" stroke="#000000" stroke-width="1"/>
    </g>
    <g>
      <path d="M0.5,432.5 L12.5,432.5 L12.5,444.5 L0.5,444.5 L0.5,432.5 z" fill="#000000"/>
      <path d="M0.5,432.5 L12.5,432.5 L12.5,444.5 L0.5,444.5 L0.5,432.5 z" fill-opacity="0" stroke="#000000" stroke-width="1"/>
    </g>
    <g>
      <path d="M12.5,12.5 L24.5,12.5 L24.5,24.5 L12.5,24.5 L12.5,12.5 z" fill="#000000"/>
      <path d="M12.5,12.5 L24.5,12.5 L24.5,24.5 L12.5,24.5 L12.5,12.5 z" fill-opacity="0" stroke="#000000" stroke-width="1"/>
    </g>
    <g>
      <path d="M24.5,12.5 L36.5,12.5 L36.5,24.5 L24.5,24.5 L24.5,12.5 z" fill="#000000"/>
      <path d="M24.5,12.5 L36.5,12.5 L36.5,24.5 L24.5,24.5 L24.5,12.5 z" fill-opacity="0" stroke="#000000" stroke-width="1"/>
    </g>
    <g>
      <path d="M12.5,24.5 L24.5,24.5 L24.5,36.5 L12.5,36.5 L12.5,24.5 z" fill="#000000"/>
      <path d="M12.5,24.5 L24.5,24.5 L24.5,36.5 L12.5,36.5 L12.5,24.5 z" fill-opacity="0" stroke="#000000" stroke-width="1"/>
    </g>
    <g>
      <path d="M24.5,24.5 L36.5,24.5 L36.5,36.5 L24.5,36.5 L24.5,24.5 z" fill="#000000"/>
      <path d="M24.5,24.5 L36.5,24.5 L36.5,36.5 L24.5,36.5 L24.5,24.5 z" fill-opacity="0" stroke="#000000" stroke-width="1"/>
    </g>
    <g>
      <path d="M36.5,24.5 L48.5,24.5 L48.5,36.5 L36.5,36.5 L36.5,24.5 z" fill="#000000"/>
      <path d="M36.5,24.5 L48.5,24.5 L48.5,36.5 L36.5,36.5 L36.5,24.5 z" fill-opacity="0" stroke="#000000" stroke-width="1"/>
    </g>
    <g>
      <path d="M24.5,36.5 L36.5,36.5 L36.5,48.5 L24.5,48.5 L24.5,36.5 z" fill="#000000"/>
      <path d="M24.5,36.5 L36.5,36.5 L36.5,48.5 L24.5,48.5 L24.5,36.5 z" fill-opacity="0" stroke="#000000" stroke-width="1"/>
    </g>
    <g>
      <path d="M36.5,36.5 L48.5,36.5 L48.5,48.5 L36.5,48.5 L36.5,36.5 z" fill="#000000"/>
      <path d="M36.5,36.5 L48.5,36.5 L48.5,48.5 L36.5,48.5 L36.5,36.5 z" fill-opacity="0" stroke="#000000" stroke-width="1"/>
    </g>
    <g>
      <path d="M24.5,48.5 L36.5,48.5 L36.5,60.5 L24.5,60.5 L24.5,48.5 z" fill="#000000"/>
      <path d="M24.5,48.5 L36.5,48.5 L36.5,60.5 L24.5,60.5 L24.5,48.5 z" fill-opacity="0" stroke="#000000" stroke-width="1"/>
    </g>
    <g>
      <path d="M48.5,72.5 L60.5,72.5 L60.5,84.5 L48.5,84.5 L48.5,72.5 z" fill="#000000"/>
      <path d="M48.5,72.5 L60.5,72.5 L60.5,84.5 L48.5,84.5 L48.5,72.5 z" fill-opacity="0" stroke="#000000" stroke-width="1"/>
    </g>
    <g>
      <path d="M36.5,60.5 L48.5,60.5 L48.5,72.5 L36.5,72.5 L36.5,60.5 z" fill="#000000"/>
      <path d="M36.5,60.5 L48.5,60.5 L48.5,72.5 L36.5,72.5 L36.5,60.5 z" fill-opacity="0" stroke="#000000" stroke-width="1"/>
    </g>
    <g>
      <path d="M36.5,48.5 L48.5,48.5 L48.5,60.5 L36.5,60.5 L36.5,48.5 z" fill="#000000"/>
      <path d="M36.5,48.5 L48.5,48.5 L48.5,60.5 L36.5,60.5 L36.5,48.5 z" fill-opacity="0" stroke="#000000" stroke-width="1"/>
    </g>
    <g>
      <path d="M48.5,48.5 L60.5,48.5 L60.5,60.5 L48.5,60.5 L48.5,48.5 z" fill="#000000"/>
      <path d="M48.5,48.5 L60.5,48.5 L60.5,60.5 L48.5,60.5 L48.5,48.5 z" fill-opacity="0" stroke="#000000" stroke-width="1"/>
    </g>
    <g>
      <path d="M48.5,60.5 L60.5,60.5 L60.5,72.5 L48.5,72.5 L48.5,60.5 z" fill="#000000"/>
      <path d="M48.5,60.5 L60.5,60.5 L60.5,72.5 L48.5,72.5 L48.5,60.5 z" fill-opacity="0" stroke="#000000" stroke-width="1"/>
    </g>
    <g>
      <path d="M60.5,72.5 L72.5,72.5 L72.5,84.5 L60.5,84.5 L60.5,72.5 z" fill="#000000"/>
      <path d="M60.5,72.5 L72.5,72.5 L72.5,84.5 L60.5,84.5 L60.5,72.5 z" fill-opacity="0" stroke="#000000" stroke-width="1"/>
    </g>
    <g>
      <path d="M60.5,84.5 L72.5,84.5 L72.5,96.5 L60.5,96.5 L60.5,84.5 z" fill="#000000"/>
      <path d="M60.5,84.5 L72.5,84.5 L72.5,96.5 L60.5,96.5 L60.5,84.5 z" fill-opacity="0" stroke="#000000" stroke-width="1"/>
    </g>
    <g>
      <path d="M48.5,84.5 L60.5,84.5 L60.5,96.5 L48.5,96.5 L48.5,84.5 z" fill="#000000"/>
      <path d="M48.5,84.5 L60.5,84.5 L60.5,96.5 L48.5,96.5 L48.5,84.5 z" fill-opacity="0" stroke="#000000" stroke-width="1"/>
    </g>
    <g>
      <path d="M72.5,84.5 L84.5,84.5 L84.5,96.5 L72.5,96.5 L72.5,84.5 z" fill="#000000"/>
      <path d="M72.5,84.5 L84.5,84.5 L84.5,96.5 L72.5,96.5 L72.5,84.5 z" fill-opacity="0" stroke="#000000" stroke-width="1"/>
    </g>
    <g>
      <path d="M60.5,60.5 L72.5,60.5 L72.5,72.5 L60.5,72.5 L60.5,60.5 z" fill="#000000"/>
      <path d="M60.5,60.5 L72.5,60.5 L72.5,72.5 L60.5,72.5 L60.5,60.5 z" fill-opacity="0" stroke="#000000" stroke-width="1"/>
    </g>
    <g>
      <path d="M84.5,96.5 L96.5,96.5 L96.5,108.5 L84.5,108.5 L84.5,96.5 z" fill="#000000"/>
      <path d="M84.5,96.5 L96.5,96.5 L96.5,108.5 L84.5,108.5 L84.5,96.5 z" fill-opacity="0" stroke="#000000" stroke-width="1"/>
    </g>
    <g>
      <path d="M72.5,96.5 L84.5,96.5 L84.5,108.5 L72.5,108.5 L72.5,96.5 z" fill="#000000"/>
      <path d="M72.5,96.5 L84.5,96.5 L84.5,108.5 L72.5,108.5 L72.5,96.5 z" fill-opacity="0" stroke="#000000" stroke-width="1"/>
    </g>
    <g>
      <path d="M60.5,96.5 L72.5,96.5 L72.5,108.5 L60.5,108.5 L60.5,96.5 z" fill="#000000"/>
      <path d="M60.5,96.5 L72.5,96.5 L72.5,108.5 L60.5,108.5 L60.5,96.5 z" fill-opacity="0" stroke="#000000" stroke-width="1"/>
    </g>
    <g>
      <path d="M48.5,96.5 L60.5,96.5 L60.5,108.5 L48.5,108.5 L48.5,96.5 z" fill="#000000"/>
      <path d="M48.5,96.5 L60.5,96.5 L60.5,108.5 L48.5,108.5 L48.5,96.5 z" fill-opacity="0" stroke="#000000" stroke-width="1"/>
    </g>
    <g>
      <path d="M36.5,108.5 L48.5,108.5 L48.5,120.5 L36.5,120.5 L36.5,108.5 z" fill="#000000"/>
      <path d="M36.5,108.5 L48.5,108.5 L48.5,120.5 L36.5,120.5 L36.5,108.5 z" fill-opacity="0" stroke="#000000" stroke-width="1"/>
    </g>
    <g>
      <path d="M48.5,108.5 L60.5,108.5 L60.5,120.5 L48.5,120.5 L48.5,108.5 z" fill="#000000"/>
      <path d="M48.5,108.5 L60.5,108.5 L60.5,120.5 L48.5,120.5 L48.5,108.5 z" fill-opacity="0" stroke="#000000" stroke-width="1"/>
    </g>
    <g>
      <path d="M60.5,108.5 L72.5,108.5 L72.5,120.5 L60.5,120.5 L60.5,108.5 z" fill="#000000"/>
      <path d="M60.5,108.5 L72.5,108.5 L72.5,120.5 L60.5,120.5 L60.5,108.5 z" fill-opacity="0" stroke="#000000" stroke-width="1"/>
    </g>
    <g>
      <path d="M72.5,108.5 L84.5,108.5 L84.5,120.5 L72.5,120.5 L72.5,108.5 z" fill="#000000"/>
      <path d="M72.5,108.5 L84.5,108.5 L84.5,120.5 L72.5,120.5 L72.5,108.5 z" fill-opacity="0" stroke="#000000" stroke-width="1"/>
    </g>
    <g>
      <path d="M84.5,120.5 L96.5,120.5 L96.5,132.5 L84.5,132.5 L84.5,120.5 z" fill="#000000"/>
      <path d="M84.5,120.5 L96.5,120.5 L96.5,132.5 L84.5,132.5 L84.5,120.5 z" fill-opacity="0" stroke="#000000" stroke-width="1"/>
    </g>
    <g>
      <path d="M72.5,120.5 L84.5,120.5 L84.5,132.5 L72.5,132.5 L72.5,120.5 z" fill="#000000"/>
      <path d="M72.5,120.5 L84.5,120.5 L84.5,132.5 L72.5,132.5 L72.5,120.5 z" fill-opacity="0" stroke="#000000" stroke-width="1"/>
    </g>
    <g>
      <path d="M60.5,120.5 L72.5,120.5 L72.5,132.5 L60.5,132.5 L60.5,120.5 z" fill="#000000"/>
      <path d="M60.5,120.5 L72.5,120.5 L72.5,132.5 L60.5,132.5 L60.5,120.5 z" fill-opacity="0" stroke="#000000" stroke-width="1"/>
    </g>
    <g>
      <path d="M48.5,120.5 L60.5,120.5 L60.5,132.5 L48.5,132.5 L48.5,120.5 z" fill="#000000"/>
      <path d="M48.5,120.5 L60.5,120.5 L60.5,132.5 L48.5,132.5 L48.5,120.5 z" fill-opacity="0" stroke="#000000" stroke-width="1"/>
    </g>
    <g>
      <path d="M60.5,132.5 L72.5,132.5 L72.5,144.5 L60.5,144.5 L60.5,132.5 z" fill="#000000"/>
      <path d="M60.5,132.5 L72.5,132.5 L72.5,144.5 L60.5,144.5 L60.5,132.5 z" fill-opacity="0" stroke="#000000" stroke-width="1"/>
    </g>
    <g>
      <path d="M48.5,132.5 L60.5,132.5 L60.5,144.5 L48.5,144.5 L48.5,132.5 z" fill="#000000"/>
      <path d="M48.5,132.5 L60.5,132.5 L60.5,144.5 L48.5,144.5 L48.5,132.5 z" fill-opacity="0" stroke="#000000" stroke-width="1"/>
    </g>
    <g>
      <path d="M36.5,120.5 L48.5,120.5 L48.5,132.5 L36.5,132.5 L36.5,120.5 z" fill="#000000"/>
      <path d="M36.5,120.5 L48.5,120.5 L48.5,132.5 L36.5,132.5 L36.5,120.5 z" fill-opacity="0" stroke="#000000" stroke-width="1"/>
    </g>
    <g>
      <path d="M36.5,132.5 L48.5,132.5 L48.5,144.5 L36.5,144.5 L36.5,132.5 z" fill="#000000"/>
      <path d="M36.5,132.5 L48.5,132.5 L48.5,144.5 L36.5,144.5 L36.5,132.5 z" fill-opacity="0" stroke="#000000" stroke-width="1"/>
    </g>
    <g>
      <path d="M48.5,144.5 L60.5,144.5 L60.5,156.5 L48.5,156.5 L48.5,144.5 z" fill="#000000"/>
      <path d="M48.5,144.5 L60.5,144.5 L60.5,156.5 L48.5,156.5 L48.5,144.5 z" fill-opacity="0" stroke="#000000" stroke-width="1"/>
    </g>
    <g>
      <path d="M36.5,144.5 L48.5,144.5 L48.5,156.5 L36.5,156.5 L36.5,144.5 z" fill="#000000"/>
      <path d="M36.5,144.5 L48.5,144.5 L48.5,156.5 L36.5,156.5 L36.5,144.5 z" fill-opacity="0" stroke="#000000" stroke-width="1"/>
    </g>
    <g>
      <path d="M24.5,144.5 L36.5,144.5 L36.5,156.5 L24.5,156.5 L24.5,144.5 z" fill="#000000"/>
      <path d="M24.5,144.5 L36.5,144.5 L36.5,156.5 L24.5,156.5 L24.5,144.5 z" fill-opacity="0" stroke="#000000" stroke-width="1"/>
    </g>
    <g>
      <path d="M24.5,132.5 L36.5,132.5 L36.5,144.5 L24.5,144.5 L24.5,132.5 z" fill="#000000"/>
      <path d="M24.5,132.5 L36.5,132.5 L36.5,144.5 L24.5,144.5 L24.5,132.5 z" fill-opacity="0" stroke="#000000" stroke-width="1"/>
    </g>
    <g>
      <path d="M12.5,144.5 L24.5,144.5 L24.5,156.5 L12.5,156.5 L12.5,144.5 z" fill="#000000"/>
      <path d="M12.5,144.5 L24.5,144.5 L24.5,156.5 L12.5,156.5 L12.5,144.5 z" fill-opacity="0" stroke="#000000" stroke-width="1"/>
    </g>
    <g>
      <path d="M84.5,108.5 L96.5,108.5 L96.5,120.5 L84.5,120.5 L84.5,108.5 z" fill="#000000"/>
      <path d="M84.5,108.5 L96.5,108.5 L96.5,120.5 L84.5,120.5 L84.5,108.5 z" fill-opacity="0" stroke="#000000" stroke-width="1"/>
    </g>
    <g>
      <path d="M0.5,12.5 L12.5,12.5 L12.5,24.5 L0.5,24.5 L0.5,12.5 z" fill="#000000"/>
      <path d="M0.5,12.5 L12.5,12.5 L12.5,24.5 L0.5,24.5 L0.5,12.5 z" fill-opacity="0" stroke="#000000" stroke-width="1"/>
    </g>
    <g>
      <path d="M108.5,72.5 L120.5,72.5 L120.5,84.5 L108.5,84.5 L108.5,72.5 z" fill="#000000"/>
      <path d="M108.5,72.5 L120.5,72.5 L120.5,84.5 L108.5,84.5 L108.5,72.5 z" fill-opacity="0" stroke="#000000" stroke-width="1"/>
    </g>
    <g>
      <path d="M120.5,84.5 L132.5,84.5 L132.5,96.5 L120.5,96.5 L120.5,84.5 z" fill="#000000"/>
      <path d="M120.5,84.5 L132.5,84.5 L132.5,96.5 L120.5,96.5 L120.5,84.5 z" fill-opacity="0" stroke="#000000" stroke-width="1"/>
    </g>
    <g>
      <path d="M132.5,84.5 L144.5,84.5 L144.5,96.5 L132.5,96.5 L132.5,84.5 z" fill="#000000"/>
      <path d="M132.5,84.5 L144.5,84.5 L144.5,96.5 L132.5,96.5 L132.5,84.5 z" fill-opacity="0" stroke="#000000" stroke-width="1"/>
    </g>
    <g>
      <path d="M120.5,72.5 L132.5,72.5 L132.5,84.5 L120.5,84.5 L120.5,72.5 z" fill="#000000"/>
      <path d="M120.5,72.5 L132.5,72.5 L132.5,84.5 L120.5,84.5 L120.5,72.5 z" fill-opacity="0" stroke="#000000" stroke-width="1"/>
    </g>
    <g>
      <path d="M156.5,96.5 L168.5,96.5 L168.5,108.5 L156.5,108.5 L156.5,96.5 z" fill="#000000"/>
      <path d="M156.5,96.5 L168.5,96.5 L168.5,108.5 L156.5,108.5 L156.5,96.5 z" fill-opacity="0" stroke="#000000" stroke-width="1"/>
    </g>
    <g>
      <path d="M144.5,96.5 L156.5,96.5 L156.5,108.5 L144.5,108.5 L144.5,96.5 z" fill="#000000"/>
      <path d="M144.5,96.5 L156.5,96.5 L156.5,108.5 L144.5,108.5 L144.5,96.5 z" fill-opacity="0" stroke="#000000" stroke-width="1"/>
    </g>
    <g>
      <path d="M132.5,96.5 L144.5,96.5 L144.5,108.5 L132.5,108.5 L132.5,96.5 z" fill="#000000"/>
      <path d="M132.5,96.5 L144.5,96.5 L144.5,108.5 L132.5,108.5 L132.5,96.5 z" fill-opacity="0" stroke="#000000" stroke-width="1"/>
    </g>
    <g>
      <path d="M120.5,108.5 L132.5,108.5 L132.5,120.5 L120.5,120.5 L120.5,108.5 z" fill="#000000"/>
      <path d="M120.5,108.5 L132.5,108.5 L132.5,120.5 L120.5,120.5 L120.5,108.5 z" fill-opacity="0" stroke="#000000" stroke-width="1"/>
    </g>
    <g>
      <path d="M144.5,108.5 L156.5,108.5 L156.5,120.5 L144.5,120.5 L144.5,108.5 z" fill="#000000"/>
      <path d="M144.5,108.5 L156.5,108.5 L156.5,120.5 L144.5,120.5 L144.5,108.5 z" fill-opacity="0" stroke="#000000" stroke-width="1"/>
    </g>
    <g>
      <path d="M132.5,108.5 L144.5,108.5 L144.5,120.5 L132.5,120.5 L132.5,108.5 z" fill="#000000"/>
      <path d="M132.5,108.5 L144.5,108.5 L144.5,120.5 L132.5,120.5 L132.5,108.5 z" fill-opacity="0" stroke="#000000" stroke-width="1"/>
    </g>
    <g>
      <path d="M132.5,120.5 L144.5,120.5 L144.5,132.5 L132.5,132.5 L132.5,120.5 z" fill="#000000"/>
      <path d="M132.5,120.5 L144.5,120.5 L144.5,132.5 L132.5,132.5 L132.5,120.5 z" fill-opacity="0" stroke="#000000" stroke-width="1"/>
    </g>
    <g>
      <path d="M96.5,144.5 L108.5,144.5 L108.5,156.5 L96.5,156.5 L96.5,144.5 z" fill="#000000"/>
      <path d="M96.5,144.5 L108.5,144.5 L108.5,156.5 L96.5,156.5 L96.5,144.5 z" fill-opacity="0" stroke="#000000" stroke-width="1"/>
    </g>
    <g>
      <path d="M84.5,155.5 L96.5,155.5 L96.5,167.5 L84.5,167.5 L84.5,155.5 z" fill="#000000"/>
      <path d="M84.5,155.5 L96.5,155.5 L96.5,167.5 L84.5,167.5 L84.5,155.5 z" fill-opacity="0" stroke="#000000" stroke-width="1"/>
    </g>
    <g>
      <path d="M108.5,144.5 L120.5,144.5 L120.5,156.5 L108.5,156.5 L108.5,144.5 z" fill="#000000"/>
      <path d="M108.5,144.5 L120.5,144.5 L120.5,156.5 L108.5,156.5 L108.5,144.5 z" fill-opacity="0" stroke="#000000" stroke-width="1"/>
    </g>
    <g>
      <path d="M96.5,155.5 L108.5,155.5 L108.5,167.5 L96.5,167.5 L96.5,155.5 z" fill="#000000"/>
      <path d="M96.5,155.5 L108.5,155.5 L108.5,167.5 L96.5,167.5 L96.5,155.5 z" fill-opacity="0" stroke="#000000" stroke-width="1"/>
    </g>
    <g>
      <path d="M108.5,155.5 L120.5,155.5 L120.5,167.5 L108.5,167.5 L108.5,155.5 z" fill="#000000"/>
      <path d="M108.5,155.5 L120.5,155.5 L120.5,167.5 L108.5,167.5 L108.5,155.5 z" fill-opacity="0" stroke="#000000" stroke-width="1"/>
    </g>
    <g>
      <path d="M120.5,155.5 L132.5,155.5 L132.5,167.5 L120.5,167.5 L120.5,155.5 z" fill="#000000"/>
      <path d="M120.5,155.5 L132.5,155.5 L132.5,167.5 L120.5,167.5 L120.5,155.5 z" fill-opacity="0" stroke="#000000" stroke-width="1"/>
    </g>
    <g>
      <path d="M84.5,168.5 L96.5,168.5 L96.5,180.5 L84.5,180.5 L84.5,168.5 z" fill="#000000"/>
      <path d="M84.5,168.5 L96.5,168.5 L96.5,180.5 L84.5,180.5 L84.5,168.5 z" fill-opacity="0" stroke="#000000" stroke-width="1"/>
    </g>
    <g>
      <path d="M96.5,168.5 L108.5,168.5 L108.5,180.5 L96.5,180.5 L96.5,168.5 z" fill="#000000"/>
      <path d="M96.5,168.5 L108.5,168.5 L108.5,180.5 L96.5,180.5 L96.5,168.5 z" fill-opacity="0" stroke="#000000" stroke-width="1"/>
    </g>
    <g>
      <path d="M108.5,168.5 L120.5,168.5 L120.5,180.5 L108.5,180.5 L108.5,168.5 z" fill="#000000"/>
      <path d="M108.5,168.5 L120.5,168.5 L120.5,180.5 L108.5,180.5 L108.5,168.5 z" fill-opacity="0" stroke="#000000" stroke-width="1"/>
    </g>
    <g>
      <path d="M108.5,180.5 L120.5,180.5 L120.5,192.5 L108.5,192.5 L108.5,180.5 z" fill="#000000"/>
      <path d="M108.5,180.5 L120.5,180.5 L120.5,192.5 L108.5,192.5 L108.5,180.5 z" fill-opacity="0" stroke="#000000" stroke-width="1"/>
    </g>
    <g>
      <path d="M96.5,180.5 L108.5,180.5 L108.5,192.5 L96.5,192.5 L96.5,180.5 z" fill="#000000"/>
      <path d="M96.5,180.5 L108.5,180.5 L108.5,192.5 L96.5,192.5 L96.5,180.5 z" fill-opacity="0" stroke="#000000" stroke-width="1"/>
    </g>
    <g>
      <path d="M144.5,144.5 L156.5,144.5 L156.5,156.5 L144.5,156.5 L144.5,144.5 z" fill="#000000"/>
      <path d="M144.5,144.5 L156.5,144.5 L156.5,156.5 L144.5,156.5 L144.5,144.5 z" fill-opacity="0" stroke="#000000" stroke-width="1"/>
    </g>
    <g>
      <path d="M144.5,156.5 L156.5,156.5 L156.5,168.5 L144.5,168.5 L144.5,156.5 z" fill="#000000"/>
      <path d="M144.5,156.5 L156.5,156.5 L156.5,168.5 L144.5,168.5 L144.5,156.5 z" fill-opacity="0" stroke="#000000" stroke-width="1"/>
    </g>
    <g>
      <path d="M156.5,144.5 L168.5,144.5 L168.5,156.5 L156.5,156.5 L156.5,144.5 z" fill="#000000"/>
      <path d="M156.5,144.5 L168.5,144.5 L168.5,156.5 L156.5,156.5 L156.5,144.5 z" fill-opacity="0" stroke="#000000" stroke-width="1"/>
    </g>
    <g>
      <path d="M156.5,156.5 L168.5,156.5 L168.5,168.5 L156.5,168.5 L156.5,156.5 z" fill="#000000"/>
      <path d="M156.5,156.5 L168.5,156.5 L168.5,168.5 L156.5,168.5 L156.5,156.5 z" fill-opacity="0" stroke="#000000" stroke-width="1"/>
    </g>
    <g>
      <path d="M156.5,168.5 L168.5,168.5 L168.5,180.5 L156.5,180.5 L156.5,168.5 z" fill="#000000"/>
      <path d="M156.5,168.5 L168.5,168.5 L168.5,180.5 L156.5,180.5 L156.5,168.5 z" fill-opacity="0" stroke="#000000" stroke-width="1"/>
    </g>
    <g>
      <path d="M180.5,120.5 L192.5,120.5 L192.5,132.5 L180.5,132.5 L180.5,120.5 z" fill="#000000"/>
      <path d="M180.5,120.5 L192.5,120.5 L192.5,132.5 L180.5,132.5 L180.5,120.5 z" fill-opacity="0" stroke="#000000" stroke-width="1"/>
    </g>
    <g>
      <path d="M192.5,120.5 L204.5,120.5 L204.5,132.5 L192.5,132.5 L192.5,120.5 z" fill="#000000"/>
      <path d="M192.5,120.5 L204.5,120.5 L204.5,132.5 L192.5,132.5 L192.5,120.5 z" fill-opacity="0" stroke="#000000" stroke-width="1"/>
    </g>
    <g>
      <path d="M204.5,120.5 L216.5,120.5 L216.5,132.5 L204.5,132.5 L204.5,120.5 z" fill="#000000"/>
      <path d="M204.5,120.5 L216.5,120.5 L216.5,132.5 L204.5,132.5 L204.5,120.5 z" fill-opacity="0" stroke="#000000" stroke-width="1"/>
    </g>
    <g>
      <path d="M216.5,132.5 L228.5,132.5 L228.5,144.5 L216.5,144.5 L216.5,132.5 z" fill="#000000"/>
      <path d="M216.5,132.5 L228.5,132.5 L228.5,144.5 L216.5,144.5 L216.5,132.5 z" fill-opacity="0" stroke="#000000" stroke-width="1"/>
    </g>
    <g>
      <path d="M228.5,132.5 L240.5,132.5 L240.5,144.5 L228.5,144.5 L228.5,132.5 z" fill="#000000"/>
      <path d="M228.5,132.5 L240.5,132.5 L240.5,144.5 L228.5,144.5 L228.5,132.5 z" fill-opacity="0" stroke="#000000" stroke-width="1"/>
    </g>
    <g>
      <path d="M228.5,144.5 L240.5,144.5 L240.5,156.5 L228.5,156.5 L228.5,144.5 z" fill="#000000"/>
      <path d="M228.5,144.5 L240.5,144.5 L240.5,156.5 L228.5,156.5 L228.5,144.5 z" fill-opacity="0" stroke="#000000" stroke-width="1"/>
    </g>
    <g>
      <path d="M216.5,144.5 L228.5,144.5 L228.5,156.5 L216.5,156.5 L216.5,144.5 z" fill="#000000"/>
      <path d="M216.5,144.5 L228.5,144.5 L228.5,156.5 L216.5,156.5 L216.5,144.5 z" fill-opacity="0" stroke="#000000" stroke-width="1"/>
    </g>
    <g>
      <path d="M204.5,144.5 L216.5,144.5 L216.5,156.5 L204.5,156.5 L204.5,144.5 z" fill="#000000"/>
      <path d="M204.5,144.5 L216.5,144.5 L216.5,156.5 L204.5,156.5 L204.5,144.5 z" fill-opacity="0" stroke="#000000" stroke-width="1"/>
    </g>
    <g>
      <path d="M204.5,132.5 L216.5,132.5 L216.5,144.5 L204.5,144.5 L204.5,132.5 z" fill="#000000"/>
      <path d="M204.5,132.5 L216.5,132.5 L216.5,144.5 L204.5,144.5 L204.5,132.5 z" fill-opacity="0" stroke="#000000" stroke-width="1"/>
    </g>
    <g>
      <path d="M192.5,132.5 L204.5,132.5 L204.5,144.5 L192.5,144.5 L192.5,132.5 z" fill="#000000"/>
      <path d="M192.5,132.5 L204.5,132.5 L204.5,144.5 L192.5,144.5 L192.5,132.5 z" fill-opacity="0" stroke="#000000" stroke-width="1"/>
    </g>
    <g>
      <path d="M228.5,156.5 L240.5,156.5 L240.5,168.5 L228.5,168.5 L228.5,156.5 z" fill="#000000"/>
      <path d="M228.5,156.5 L240.5,156.5 L240.5,168.5 L228.5,168.5 L228.5,156.5 z" fill-opacity="0" stroke="#000000" stroke-width="1"/>
    </g>
    <g>
      <path d="M204.5,155.5 L216.5,155.5 L216.5,167.5 L204.5,167.5 L204.5,155.5 z" fill="#000000"/>
      <path d="M204.5,155.5 L216.5,155.5 L216.5,167.5 L204.5,167.5 L204.5,155.5 z" fill-opacity="0" stroke="#000000" stroke-width="1"/>
    </g>
    <g>
      <path d="M216.5,155.5 L228.5,155.5 L228.5,167.5 L216.5,167.5 L216.5,155.5 z" fill="#000000"/>
      <path d="M216.5,155.5 L228.5,155.5 L228.5,167.5 L216.5,167.5 L216.5,155.5 z" fill-opacity="0" stroke="#000000" stroke-width="1"/>
    </g>
    <g>
      <path d="M192.5,155.5 L204.5,155.5 L204.5,167.5 L192.5,167.5 L192.5,155.5 z" fill="#000000"/>
      <path d="M192.5,155.5 L204.5,155.5 L204.5,167.5 L192.5,167.5 L192.5,155.5 z" fill-opacity="0" stroke="#000000" stroke-width="1"/>
    </g>
    <g>
      <path d="M216.5,168.5 L228.5,168.5 L228.5,180.5 L216.5,180.5 L216.5,168.5 z" fill="#000000"/>
      <path d="M216.5,168.5 L228.5,168.5 L228.5,180.5 L216.5,180.5 L216.5,168.5 z" fill-opacity="0" stroke="#000000" stroke-width="1"/>
    </g>
    <g>
      <path d="M204.5,168.5 L216.5,168.5 L216.5,180.5 L204.5,180.5 L204.5,168.5 z" fill="#000000"/>
      <path d="M204.5,168.5 L216.5,168.5 L216.5,180.5 L204.5,180.5 L204.5,168.5 z" fill-opacity="0" stroke="#000000" stroke-width="1"/>
    </g>
    <g>
      <path d="M144.5,204.5 L156.5,204.5 L156.5,216.5 L144.5,216.5 L144.5,204.5 z" fill="#000000"/>
      <path d="M144.5,204.5 L156.5,204.5 L156.5,216.5 L144.5,216.5 L144.5,204.5 z" fill-opacity="0" stroke="#000000" stroke-width="1"/>
    </g>
    <g>
      <path d="M156.5,204.5 L168.5,204.5 L168.5,216.5 L156.5,216.5 L156.5,204.5 z" fill="#000000"/>
      <path d="M156.5,204.5 L168.5,204.5 L168.5,216.5 L156.5,216.5 L156.5,204.5 z" fill-opacity="0" stroke="#000000" stroke-width="1"/>
    </g>
    <g>
      <path d="M156.5,216.5 L168.5,216.5 L168.5,228.5 L156.5,228.5 L156.5,216.5 z" fill="#000000"/>
      <path d="M156.5,216.5 L168.5,216.5 L168.5,228.5 L156.5,228.5 L156.5,216.5 z" fill-opacity="0" stroke="#000000" stroke-width="1"/>
    </g>
    <g>
      <path d="M144.5,216.5 L156.5,216.5 L156.5,228.5 L144.5,228.5 L144.5,216.5 z" fill="#000000"/>
      <path d="M144.5,216.5 L156.5,216.5 L156.5,228.5 L144.5,228.5 L144.5,216.5 z" fill-opacity="0" stroke="#000000" stroke-width="1"/>
    </g>
    <g>
      <path d="M132.5,216.5 L144.5,216.5 L144.5,228.5 L132.5,228.5 L132.5,216.5 z" fill="#000000"/>
      <path d="M132.5,216.5 L144.5,216.5 L144.5,228.5 L132.5,228.5 L132.5,216.5 z" fill-opacity="0" stroke="#000000" stroke-width="1"/>
    </g>
    <g>
      <path d="M132.5,204.5 L144.5,204.5 L144.5,216.5 L132.5,216.5 L132.5,204.5 z" fill="#000000"/>
      <path d="M132.5,204.5 L144.5,204.5 L144.5,216.5 L132.5,216.5 L132.5,204.5 z" fill-opacity="0" stroke="#000000" stroke-width="1"/>
    </g>
    <g>
      <path d="M132.5,192.5 L144.5,192.5 L144.5,204.5 L132.5,204.5 L132.5,192.5 z" fill="#000000"/>
      <path d="M132.5,192.5 L144.5,192.5 L144.5,204.5 L132.5,204.5 L132.5,192.5 z" fill-opacity="0" stroke="#000000" stroke-width="1"/>
    </g>
    <g>
      <path d="M120.5,204.5 L132.5,204.5 L132.5,216.5 L120.5,216.5 L120.5,204.5 z" fill="#000000"/>
      <path d="M120.5,204.5 L132.5,204.5 L132.5,216.5 L120.5,216.5 L120.5,204.5 z" fill-opacity="0" stroke="#000000" stroke-width="1"/>
    </g>
    <g>
      <path d="M120.5,216.5 L132.5,216.5 L132.5,228.5 L120.5,228.5 L120.5,216.5 z" fill="#000000"/>
      <path d="M120.5,216.5 L132.5,216.5 L132.5,228.5 L120.5,228.5 L120.5,216.5 z" fill-opacity="0" stroke="#000000" stroke-width="1"/>
    </g>
    <g>
      <path d="M144.5,192.5 L156.5,192.5 L156.5,204.5 L144.5,204.5 L144.5,192.5 z" fill="#000000"/>
      <path d="M144.5,192.5 L156.5,192.5 L156.5,204.5 L144.5,204.5 L144.5,192.5 z" fill-opacity="0" stroke="#000000" stroke-width="1"/>
    </g>
    <g>
      <path d="M168.5,216.5 L180.5,216.5 L180.5,228.5 L168.5,228.5 L168.5,216.5 z" fill="#000000"/>
      <path d="M168.5,216.5 L180.5,216.5 L180.5,228.5 L168.5,228.5 L168.5,216.5 z" fill-opacity="0" stroke="#000000" stroke-width="1"/>
    </g>
    <g>
      <path d="M180.5,228.5 L192.5,228.5 L192.5,240.5 L180.5,240.5 L180.5,228.5 z" fill="#000000"/>
      <path d="M180.5,228.5 L192.5,228.5 L192.5,240.5 L180.5,240.5 L180.5,228.5 z" fill-opacity="0" stroke="#000000" stroke-width="1"/>
    </g>
    <g>
      <path d="M180.5,240.5 L192.5,240.5 L192.5,252.5 L180.5,252.5 L180.5,240.5 z" fill="#000000"/>
      <path d="M180.5,240.5 L192.5,240.5 L192.5,252.5 L180.5,252.5 L180.5,240.5 z" fill-opacity="0" stroke="#000000" stroke-width="1"/>
    </g>
    <g>
      <path d="M192.5,240.5 L204.5,240.5 L204.5,252.5 L192.5,252.5 L192.5,240.5 z" fill="#000000"/>
      <path d="M192.5,240.5 L204.5,240.5 L204.5,252.5 L192.5,252.5 L192.5,240.5 z" fill-opacity="0" stroke="#000000" stroke-width="1"/>
    </g>
    <g>
      <path d="M180.5,252.5 L192.5,252.5 L192.5,264.5 L180.5,264.5 L180.5,252.5 z" fill="#000000"/>
      <path d="M180.5,252.5 L192.5,252.5 L192.5,264.5 L180.5,264.5 L180.5,252.5 z" fill-opacity="0" stroke="#000000" stroke-width="1"/>
    </g>
    <g>
      <path d="M168.5,252.5 L180.5,252.5 L180.5,264.5 L168.5,264.5 L168.5,252.5 z" fill="#000000"/>
      <path d="M168.5,252.5 L180.5,252.5 L180.5,264.5 L168.5,264.5 L168.5,252.5 z" fill-opacity="0" stroke="#000000" stroke-width="1"/>
    </g>
    <g>
      <path d="M168.5,240.5 L180.5,240.5 L180.5,252.5 L168.5,252.5 L168.5,240.5 z" fill="#000000"/>
      <path d="M168.5,240.5 L180.5,240.5 L180.5,252.5 L168.5,252.5 L168.5,240.5 z" fill-opacity="0" stroke="#000000" stroke-width="1"/>
    </g>
    <g>
      <path d="M168.5,228.5 L180.5,228.5 L180.5,240.5 L168.5,240.5 L168.5,228.5 z" fill="#000000"/>
      <path d="M168.5,228.5 L180.5,228.5 L180.5,240.5 L168.5,240.5 L168.5,228.5 z" fill-opacity="0" stroke="#000000" stroke-width="1"/>
    </g>
    <g>
      <path d="M156.5,228.5 L168.5,228.5 L168.5,240.5 L156.5,240.5 L156.5,228.5 z" fill="#000000"/>
      <path d="M156.5,228.5 L168.5,228.5 L168.5,240.5 L156.5,240.5 L156.5,228.5 z" fill-opacity="0" stroke="#000000" stroke-width="1"/>
    </g>
    <g>
      <path d="M156.5,240.5 L168.5,240.5 L168.5,252.5 L156.5,252.5 L156.5,240.5 z" fill="#000000"/>
      <path d="M156.5,240.5 L168.5,240.5 L168.5,252.5 L156.5,252.5 L156.5,240.5 z" fill-opacity="0" stroke="#000000" stroke-width="1"/>
    </g>
    <g>
      <path d="M156.5,252.5 L168.5,252.5 L168.5,264.5 L156.5,264.5 L156.5,252.5 z" fill="#000000"/>
      <path d="M156.5,252.5 L168.5,252.5 L168.5,264.5 L156.5,264.5 L156.5,252.5 z" fill-opacity="0" stroke="#000000" stroke-width="1"/>
    </g>
    <g>
      <path d="M156.5,264.5 L168.5,264.5 L168.5,276.5 L156.5,276.5 L156.5,264.5 z" fill="#000000"/>
      <path d="M156.5,264.5 L168.5,264.5 L168.5,276.5 L156.5,276.5 L156.5,264.5 z" fill-opacity="0" stroke="#000000" stroke-width="1"/>
    </g>
    <g>
      <path d="M144.5,276.5 L156.5,276.5 L156.5,288.5 L144.5,288.5 L144.5,276.5 z" fill="#000000"/>
      <path d="M144.5,276.5 L156.5,276.5 L156.5,288.5 L144.5,288.5 L144.5,276.5 z" fill-opacity="0" stroke="#000000" stroke-width="1"/>
    </g>
    <g>
      <path d="M144.5,264.5 L156.5,264.5 L156.5,276.5 L144.5,276.5 L144.5,264.5 z" fill="#000000"/>
      <path d="M144.5,264.5 L156.5,264.5 L156.5,276.5 L144.5,276.5 L144.5,264.5 z" fill-opacity="0" stroke="#000000" stroke-width="1"/>
    </g>
    <g>
      <path d="M144.5,252.5 L156.5,252.5 L156.5,264.5 L144.5,264.5 L144.5,252.5 z" fill="#000000"/>
      <path d="M144.5,252.5 L156.5,252.5 L156.5,264.5 L144.5,264.5 L144.5,252.5 z" fill-opacity="0" stroke="#000000" stroke-width="1"/>
    </g>
    <g>
      <path d="M144.5,240.5 L156.5,240.5 L156.5,252.5 L144.5,252.5 L144.5,240.5 z" fill="#000000"/>
      <path d="M144.5,240.5 L156.5,240.5 L156.5,252.5 L144.5,252.5 L144.5,240.5 z" fill-opacity="0" stroke="#000000" stroke-width="1"/>
    </g>
    <g>
      <path d="M144.5,228.5 L156.5,228.5 L156.5,240.5 L144.5,240.5 L144.5,228.5 z" fill="#000000"/>
      <path d="M144.5,228.5 L156.5,228.5 L156.5,240.5 L144.5,240.5 L144.5,228.5 z" fill-opacity="0" stroke="#000000" stroke-width="1"/>
    </g>
    <g>
      <path d="M132.5,264.5 L144.5,264.5 L144.5,276.5 L132.5,276.5 L132.5,264.5 z" fill="#000000"/>
      <path d="M132.5,264.5 L144.5,264.5 L144.5,276.5 L132.5,276.5 L132.5,264.5 z" fill-opacity="0" stroke="#000000" stroke-width="1"/>
    </g>
    <g>
      <path d="M132.5,252.5 L144.5,252.5 L144.5,264.5 L132.5,264.5 L132.5,252.5 z" fill="#000000"/>
      <path d="M132.5,252.5 L144.5,252.5 L144.5,264.5 L132.5,264.5 L132.5,252.5 z" fill-opacity="0" stroke="#000000" stroke-width="1"/>
    </g>
    <g>
      <path d="M132.5,240.5 L144.5,240.5 L144.5,252.5 L132.5,252.5 L132.5,240.5 z" fill="#000000"/>
      <path d="M132.5,240.5 L144.5,240.5 L144.5,252.5 L132.5,252.5 L132.5,240.5 z" fill-opacity="0" stroke="#000000" stroke-width="1"/>
    </g>
    <g>
      <path d="M132.5,228.5 L144.5,228.5 L144.5,240.5 L132.5,240.5 L132.5,228.5 z" fill="#000000"/>
      <path d="M132.5,228.5 L144.5,228.5 L144.5,240.5 L132.5,240.5 L132.5,228.5 z" fill-opacity="0" stroke="#000000" stroke-width="1"/>
    </g>
    <g>
      <path d="M120.5,264.5 L132.5,264.5 L132.5,276.5 L120.5,276.5 L120.5,264.5 z" fill="#000000"/>
      <path d="M120.5,264.5 L132.5,264.5 L132.5,276.5 L120.5,276.5 L120.5,264.5 z" fill-opacity="0" stroke="#000000" stroke-width="1"/>
    </g>
    <g>
      <path d="M120.5,252.5 L132.5,252.5 L132.5,264.5 L120.5,264.5 L120.5,252.5 z" fill="#000000"/>
      <path d="M120.5,252.5 L132.5,252.5 L132.5,264.5 L120.5,264.5 L120.5,252.5 z" fill-opacity="0" stroke="#000000" stroke-width="1"/>
    </g>
    <g>
      <path d="M120.5,240.5 L132.5,240.5 L132.5,252.5 L120.5,252.5 L120.5,240.5 z" fill="#000000"/>
      <path d="M120.5,240.5 L132.5,240.5 L132.5,252.5 L120.5,252.5 L120.5,240.5 z" fill-opacity="0" stroke="#000000" stroke-width="1"/>
    </g>
    <g>
      <path d="M120.5,228.5 L132.5,228.5 L132.5,240.5 L120.5,240.5 L120.5,228.5 z" fill="#000000"/>
      <path d="M120.5,228.5 L132.5,228.5 L132.5,240.5 L120.5,240.5 L120.5,228.5 z" fill-opacity="0" stroke="#000000" stroke-width="1"/>
    </g>
    <g>
      <path d="M132.5,276.5 L144.5,276.5 L144.5,288.5 L132.5,288.5 L132.5,276.5 z" fill="#000000"/>
      <path d="M132.5,276.5 L144.5,276.5 L144.5,288.5 L132.5,288.5 L132.5,276.5 z" fill-opacity="0" stroke="#000000" stroke-width="1"/>
    </g>
    <g>
      <path d="M180.5,252.5 L192.5,252.5 L192.5,264.5 L180.5,264.5 L180.5,252.5 z" fill="#000000"/>
      <path d="M180.5,252.5 L192.5,252.5 L192.5,264.5 L180.5,264.5 L180.5,252.5 z" fill-opacity="0" stroke="#000000" stroke-width="1"/>
    </g>
    <g>
      <path d="M108.5,252.5 L120.5,252.5 L120.5,264.5 L108.5,264.5 L108.5,252.5 z" fill="#000000"/>
      <path d="M108.5,252.5 L120.5,252.5 L120.5,264.5 L108.5,264.5 L108.5,252.5 z" fill-opacity="0" stroke="#000000" stroke-width="1"/>
    </g>
    <g>
      <path d="M108.5,240.5 L120.5,240.5 L120.5,252.5 L108.5,252.5 L108.5,240.5 z" fill="#000000"/>
      <path d="M108.5,240.5 L120.5,240.5 L120.5,252.5 L108.5,252.5 L108.5,240.5 z" fill-opacity="0" stroke="#000000" stroke-width="1"/>
    </g>
    <g>
      <path d="M96.5,252.5 L108.5,252.5 L108.5,264.5 L96.5,264.5 L96.5,252.5 z" fill="#000000"/>
      <path d="M96.5,252.5 L108.5,252.5 L108.5,264.5 L96.5,264.5 L96.5,252.5 z" fill-opacity="0" stroke="#000000" stroke-width="1"/>
    </g>
    <g>
      <path d="M96.5,240.5 L108.5,240.5 L108.5,252.5 L96.5,252.5 L96.5,240.5 z" fill="#000000"/>
      <path d="M96.5,240.5 L108.5,240.5 L108.5,252.5 L96.5,252.5 L96.5,240.5 z" fill-opacity="0" stroke="#000000" stroke-width="1"/>
    </g>
    <g>
      <path d="M108.5,228.5 L120.5,228.5 L120.5,240.5 L108.5,240.5 L108.5,228.5 z" fill="#000000"/>
      <path d="M108.5,228.5 L120.5,228.5 L120.5,240.5 L108.5,240.5 L108.5,228.5 z" fill-opacity="0" stroke="#000000" stroke-width="1"/>
    </g>
    <g>
      <path d="M96.5,228.5 L108.5,228.5 L108.5,240.5 L96.5,240.5 L96.5,228.5 z" fill="#000000"/>
      <path d="M96.5,228.5 L108.5,228.5 L108.5,240.5 L96.5,240.5 L96.5,228.5 z" fill-opacity="0" stroke="#000000" stroke-width="1"/>
    </g>
    <g>
      <path d="M108.5,216.5 L120.5,216.5 L120.5,228.5 L108.5,228.5 L108.5,216.5 z" fill="#000000"/>
      <path d="M108.5,216.5 L120.5,216.5 L120.5,228.5 L108.5,228.5 L108.5,216.5 z" fill-opacity="0" stroke="#000000" stroke-width="1"/>
    </g>
    <g>
      <path d="M84.5,240.5 L96.5,240.5 L96.5,252.5 L84.5,252.5 L84.5,240.5 z" fill="#000000"/>
      <path d="M84.5,240.5 L96.5,240.5 L96.5,252.5 L84.5,252.5 L84.5,240.5 z" fill-opacity="0" stroke="#000000" stroke-width="1"/>
    </g>
    <g>
      <path d="M84.5,228.5 L96.5,228.5 L96.5,240.5 L84.5,240.5 L84.5,228.5 z" fill="#000000"/>
      <path d="M84.5,228.5 L96.5,228.5 L96.5,240.5 L84.5,240.5 L84.5,228.5 z" fill-opacity="0" stroke="#000000" stroke-width="1"/>
    </g>
    <g>
      <path d="M72.5,228.5 L84.5,228.5 L84.5,240.5 L72.5,240.5 L72.5,228.5 z" fill="#000000"/>
      <path d="M72.5,228.5 L84.5,228.5 L84.5,240.5 L72.5,240.5 L72.5,228.5 z" fill-opacity="0" stroke="#000000" stroke-width="1"/>
    </g>
    <g>
      <path d="M72.5,216.5 L84.5,216.5 L84.5,228.5 L72.5,228.5 L72.5,216.5 z" fill="#000000"/>
      <path d="M72.5,216.5 L84.5,216.5 L84.5,228.5 L72.5,228.5 L72.5,216.5 z" fill-opacity="0" stroke="#000000" stroke-width="1"/>
    </g>
    <g>
      <path d="M60.5,228.5 L72.5,228.5 L72.5,240.5 L60.5,240.5 L60.5,228.5 z" fill="#000000"/>
      <path d="M60.5,228.5 L72.5,228.5 L72.5,240.5 L60.5,240.5 L60.5,228.5 z" fill-opacity="0" stroke="#000000" stroke-width="1"/>
    </g>
    <g>
      <path d="M60.5,228.5 L72.5,228.5 L72.5,240.5 L60.5,240.5 L60.5,228.5 z" fill="#000000"/>
      <path d="M60.5,228.5 L72.5,228.5 L72.5,240.5 L60.5,240.5 L60.5,228.5 z" fill-opacity="0" stroke="#000000" stroke-width="1"/>
    </g>
    <g>
      <path d="M60.5,216.5 L72.5,216.5 L72.5,228.5 L60.5,228.5 L60.5,216.5 z" fill="#000000"/>
      <path d="M60.5,216.5 L72.5,216.5 L72.5,228.5 L60.5,228.5 L60.5,216.5 z" fill-opacity="0" stroke="#000000" stroke-width="1"/>
    </g>
    <g>
      <path d="M84.5,216.5 L96.5,216.5 L96.5,228.5 L84.5,228.5 L84.5,216.5 z" fill="#000000"/>
      <path d="M84.5,216.5 L96.5,216.5 L96.5,228.5 L84.5,228.5 L84.5,216.5 z" fill-opacity="0" stroke="#000000" stroke-width="1"/>
    </g>
    <g>
      <path d="M72.5,204.5 L84.5,204.5 L84.5,216.5 L72.5,216.5 L72.5,204.5 z" fill="#000000"/>
      <path d="M72.5,204.5 L84.5,204.5 L84.5,216.5 L72.5,216.5 L72.5,204.5 z" fill-opacity="0" stroke="#000000" stroke-width="1"/>
    </g>
    <g>
      <path d="M72.5,252.5 L84.5,252.5 L84.5,264.5 L72.5,264.5 L72.5,252.5 z" fill="#000000"/>
      <path d="M72.5,252.5 L84.5,252.5 L84.5,264.5 L72.5,264.5 L72.5,252.5 z" fill-opacity="0" stroke="#000000" stroke-width="1"/>
    </g>
    <g>
      <path d="M84.5,264.5 L96.5,264.5 L96.5,276.5 L84.5,276.5 L84.5,264.5 z" fill="#000000"/>
      <path d="M84.5,264.5 L96.5,264.5 L96.5,276.5 L84.5,276.5 L84.5,264.5 z" fill-opacity="0" stroke="#000000" stroke-width="1"/>
    </g>
    <g>
      <path d="M96.5,276.5 L108.5,276.5 L108.5,288.5 L96.5,288.5 L96.5,276.5 z" fill="#000000"/>
      <path d="M96.5,276.5 L108.5,276.5 L108.5,288.5 L96.5,288.5 L96.5,276.5 z" fill-opacity="0" stroke="#000000" stroke-width="1"/>
    </g>
    <g>
      <path d="M108.5,288.5 L120.5,288.5 L120.5,300.5 L108.5,300.5 L108.5,288.5 z" fill="#000000"/>
      <path d="M108.5,288.5 L120.5,288.5 L120.5,300.5 L108.5,300.5 L108.5,288.5 z" fill-opacity="0" stroke="#000000" stroke-width="1"/>
    </g>
    <g>
      <path d="M120.5,276.5 L132.5,276.5 L132.5,288.5 L120.5,288.5 L120.5,276.5 z" fill="#000000"/>
      <path d="M120.5,276.5 L132.5,276.5 L132.5,288.5 L120.5,288.5 L120.5,276.5 z" fill-opacity="0" stroke="#000000" stroke-width="1"/>
    </g>
    <g>
      <path d="M120.5,300.5 L132.5,300.5 L132.5,312.5 L120.5,312.5 L120.5,300.5 z" fill="#000000"/>
      <path d="M120.5,300.5 L132.5,300.5 L132.5,312.5 L120.5,312.5 L120.5,300.5 z" fill-opacity="0" stroke="#000000" stroke-width="1"/>
    </g>
    <g>
      <path d="M96.5,300.5 L108.5,300.5 L108.5,312.5 L96.5,312.5 L96.5,300.5 z" fill="#000000"/>
      <path d="M96.5,300.5 L108.5,300.5 L108.5,312.5 L96.5,312.5 L96.5,300.5 z" fill-opacity="0" stroke="#000000" stroke-width="1"/>
    </g>
    <g>
      <path d="M108.5,300.5 L120.5,300.5 L120.5,312.5 L108.5,312.5 L108.5,300.5 z" fill="#000000"/>
      <path d="M108.5,300.5 L120.5,300.5 L120.5,312.5 L108.5,312.5 L108.5,300.5 z" fill-opacity="0" stroke="#000000" stroke-width="1"/>
    </g>
    <g>
      <path d="M96.5,288.5 L108.5,288.5 L108.5,300.5 L96.5,300.5 L96.5,288.5 z" fill="#000000"/>
      <path d="M96.5,288.5 L108.5,288.5 L108.5,300.5 L96.5,300.5 L96.5,288.5 z" fill-opacity="0" stroke="#000000" stroke-width="1"/>
    </g>
    <g>
      <path d="M84.5,288.5 L96.5,288.5 L96.5,300.5 L84.5,300.5 L84.5,288.5 z" fill="#000000"/>
      <path d="M84.5,288.5 L96.5,288.5 L96.5,300.5 L84.5,300.5 L84.5,288.5 z" fill-opacity="0" stroke="#000000" stroke-width="1"/>
    </g>
    <g>
      <path d="M60.5,168.5 L72.5,168.5 L72.5,180.5 L60.5,180.5 L60.5,168.5 z" fill="#000000"/>
      <path d="M60.5,168.5 L72.5,168.5 L72.5,180.5 L60.5,180.5 L60.5,168.5 z" fill-opacity="0" stroke="#000000" stroke-width="1"/>
    </g>
    <g>
      <path d="M60.5,180.5 L72.5,180.5 L72.5,192.5 L60.5,192.5 L60.5,180.5 z" fill="#000000"/>
      <path d="M60.5,180.5 L72.5,180.5 L72.5,192.5 L60.5,192.5 L60.5,180.5 z" fill-opacity="0" stroke="#000000" stroke-width="1"/>
    </g>
    <g>
      <path d="M48.5,180.5 L60.5,180.5 L60.5,192.5 L48.5,192.5 L48.5,180.5 z" fill="#000000"/>
      <path d="M48.5,180.5 L60.5,180.5 L60.5,192.5 L48.5,192.5 L48.5,180.5 z" fill-opacity="0" stroke="#000000" stroke-width="1"/>
    </g>
    <g>
      <path d="M48.5,192.5 L60.5,192.5 L60.5,204.5 L48.5,204.5 L48.5,192.5 z" fill="#000000"/>
      <path d="M48.5,192.5 L60.5,192.5 L60.5,204.5 L48.5,204.5 L48.5,192.5 z" fill-opacity="0" stroke="#000000" stroke-width="1"/>
    </g>
    <g>
      <path d="M36.5,192.5 L48.5,192.5 L48.5,204.5 L36.5,204.5 L36.5,192.5 z" fill="#000000"/>
      <path d="M36.5,192.5 L48.5,192.5 L48.5,204.5 L36.5,204.5 L36.5,192.5 z" fill-opacity="0" stroke="#000000" stroke-width="1"/>
    </g>
    <g>
      <path d="M36.5,204.5 L48.5,204.5 L48.5,216.5 L36.5,216.5 L36.5,204.5 z" fill="#000000"/>
      <path d="M36.5,204.5 L48.5,204.5 L48.5,216.5 L36.5,216.5 L36.5,204.5 z" fill-opacity="0" stroke="#000000" stroke-width="1"/>
    </g>
    <g>
      <path d="M60.5,222.5 L72.5,222.5 L72.5,234.5 L60.5,234.5 L60.5,222.5 z" fill="#000000"/>
      <path d="M60.5,222.5 L72.5,222.5 L72.5,234.5 L60.5,234.5 L60.5,222.5 z" fill-opacity="0" stroke="#000000" stroke-width="1"/>
    </g>
    <g>
      <path d="M36.5,216.5 L48.5,216.5 L48.5,228.5 L36.5,228.5 L36.5,216.5 z" fill="#000000"/>
      <path d="M36.5,216.5 L48.5,216.5 L48.5,228.5 L36.5,228.5 L36.5,216.5 z" fill-opacity="0" stroke="#000000" stroke-width="1"/>
    </g>
    <g>
      <path d="M24.5,216.5 L36.5,216.5 L36.5,228.5 L24.5,228.5 L24.5,216.5 z" fill="#000000"/>
      <path d="M24.5,216.5 L36.5,216.5 L36.5,228.5 L24.5,228.5 L24.5,216.5 z" fill-opacity="0" stroke="#000000" stroke-width="1"/>
    </g>
    <g>
      <path d="M24.5,204.5 L36.5,204.5 L36.5,216.5 L24.5,216.5 L24.5,204.5 z" fill="#000000"/>
      <path d="M24.5,204.5 L36.5,204.5 L36.5,216.5 L24.5,216.5 L24.5,204.5 z" fill-opacity="0" stroke="#000000" stroke-width="1"/>
    </g>
    <g>
      <path d="M180.5,276.5 L192.5,276.5 L192.5,288.5 L180.5,288.5 L180.5,276.5 z" fill="#000000"/>
      <path d="M180.5,276.5 L192.5,276.5 L192.5,288.5 L180.5,288.5 L180.5,276.5 z" fill-opacity="0" stroke="#000000" stroke-width="1"/>
    </g>
    <g>
      <path d="M180.5,288.5 L192.5,288.5 L192.5,300.5 L180.5,300.5 L180.5,288.5 z" fill="#000000"/>
      <path d="M180.5,288.5 L192.5,288.5 L192.5,300.5 L180.5,300.5 L180.5,288.5 z" fill-opacity="0" stroke="#000000" stroke-width="1"/>
    </g>
    <g>
      <path d="M192.5,276.5 L204.5,276.5 L204.5,288.5 L192.5,288.5 L192.5,276.5 z" fill="#000000"/>
      <path d="M192.5,276.5 L204.5,276.5 L204.5,288.5 L192.5,288.5 L192.5,276.5 z" fill-opacity="0" stroke="#000000" stroke-width="1"/>
    </g>
    <g>
      <path d="M192.5,288.5 L204.5,288.5 L204.5,300.5 L192.5,300.5 L192.5,288.5 z" fill="#000000"/>
      <path d="M192.5,288.5 L204.5,288.5 L204.5,300.5 L192.5,300.5 L192.5,288.5 z" fill-opacity="0" stroke="#000000" stroke-width="1"/>
    </g>
    <g>
      <path d="M168.5,300.5 L180.5,300.5 L180.5,312.5 L168.5,312.5 L168.5,300.5 z" fill="#000000"/>
      <path d="M168.5,300.5 L180.5,300.5 L180.5,312.5 L168.5,312.5 L168.5,300.5 z" fill-opacity="0" stroke="#000000" stroke-width="1"/>
    </g>
    <g>
      <path d="M168.5,312.5 L180.5,312.5 L180.5,324.5 L168.5,324.5 L168.5,312.5 z" fill="#000000"/>
      <path d="M168.5,312.5 L180.5,312.5 L180.5,324.5 L168.5,324.5 L168.5,312.5 z" fill-opacity="0" stroke="#000000" stroke-width="1"/>
    </g>
    <g>
      <path d="M180.5,300.5 L192.5,300.5 L192.5,312.5 L180.5,312.5 L180.5,300.5 z" fill="#000000"/>
      <path d="M180.5,300.5 L192.5,300.5 L192.5,312.5 L180.5,312.5 L180.5,300.5 z" fill-opacity="0" stroke="#000000" stroke-width="1"/>
    </g>
    <g>
      <path d="M192.5,300.5 L204.5,300.5 L204.5,312.5 L192.5,312.5 L192.5,300.5 z" fill="#000000"/>
      <path d="M192.5,300.5 L204.5,300.5 L204.5,312.5 L192.5,312.5 L192.5,300.5 z" fill-opacity="0" stroke="#000000" stroke-width="1"/>
    </g>
    <g>
      <path d="M156.5,312.5 L168.5,312.5 L168.5,324.5 L156.5,324.5 L156.5,312.5 z" fill="#000000"/>
      <path d="M156.5,312.5 L168.5,312.5 L168.5,324.5 L156.5,324.5 L156.5,312.5 z" fill-opacity="0" stroke="#000000" stroke-width="1"/>
    </g>
    <g>
      <path d="M144.5,312.5 L156.5,312.5 L156.5,324.5 L144.5,324.5 L144.5,312.5 z" fill="#000000"/>
      <path d="M144.5,312.5 L156.5,312.5 L156.5,324.5 L144.5,324.5 L144.5,312.5 z" fill-opacity="0" stroke="#000000" stroke-width="1"/>
    </g>
    <g>
      <path d="M84.5,324.5 L96.5,324.5 L96.5,336.5 L84.5,336.5 L84.5,324.5 z" fill="#000000"/>
      <path d="M84.5,324.5 L96.5,324.5 L96.5,336.5 L84.5,336.5 L84.5,324.5 z" fill-opacity="0" stroke="#000000" stroke-width="1"/>
    </g>
    <g>
      <path d="M96.5,336.5 L108.5,336.5 L108.5,348.5 L96.5,348.5 L96.5,336.5 z" fill="#000000"/>
      <path d="M96.5,336.5 L108.5,336.5 L108.5,348.5 L96.5,348.5 L96.5,336.5 z" fill-opacity="0" stroke="#000000" stroke-width="1"/>
    </g>
    <g>
      <path d="M84.5,336.5 L96.5,336.5 L96.5,348.5 L84.5,348.5 L84.5,336.5 z" fill="#000000"/>
      <path d="M84.5,336.5 L96.5,336.5 L96.5,348.5 L84.5,348.5 L84.5,336.5 z" fill-opacity="0" stroke="#000000" stroke-width="1"/>
    </g>
    <g>
      <path d="M108.5,348.5 L120.5,348.5 L120.5,360.5 L108.5,360.5 L108.5,348.5 z" fill="#000000"/>
      <path d="M108.5,348.5 L120.5,348.5 L120.5,360.5 L108.5,360.5 L108.5,348.5 z" fill-opacity="0" stroke="#000000" stroke-width="1"/>
    </g>
    <g>
      <path d="M96.5,348.5 L108.5,348.5 L108.5,360.5 L96.5,360.5 L96.5,348.5 z" fill="#000000"/>
      <path d="M96.5,348.5 L108.5,348.5 L108.5,360.5 L96.5,360.5 L96.5,348.5 z" fill-opacity="0" stroke="#000000" stroke-width="1"/>
    </g>
    <g>
      <path d="M132.5,336.5 L144.5,336.5 L144.5,348.5 L132.5,348.5 L132.5,336.5 z" fill="#000000"/>
      <path d="M132.5,336.5 L144.5,336.5 L144.5,348.5 L132.5,348.5 L132.5,336.5 z" fill-opacity="0" stroke="#000000" stroke-width="1"/>
    </g>
    <g>
      <path d="M144.5,336.5 L156.5,336.5 L156.5,348.5 L144.5,348.5 L144.5,336.5 z" fill="#000000"/>
      <path d="M144.5,336.5 L156.5,336.5 L156.5,348.5 L144.5,348.5 L144.5,336.5 z" fill-opacity="0" stroke="#000000" stroke-width="1"/>
    </g>
    <g>
      <path d="M156.5,348.5 L168.5,348.5 L168.5,360.5 L156.5,360.5 L156.5,348.5 z" fill="#000000"/>
      <path d="M156.5,348.5 L168.5,348.5 L168.5,360.5 L156.5,360.5 L156.5,348.5 z" fill-opacity="0" stroke="#000000" stroke-width="1"/>
    </g>
    <g>
      <path d="M168.5,336.5 L180.5,336.5 L180.5,348.5 L168.5,348.5 L168.5,336.5 z" fill="#000000"/>
      <path d="M168.5,336.5 L180.5,336.5 L180.5,348.5 L168.5,348.5 L168.5,336.5 z" fill-opacity="0" stroke="#000000" stroke-width="1"/>
    </g>
    <g>
      <path d="M168.5,360.5 L180.5,360.5 L180.5,372.5 L168.5,372.5 L168.5,360.5 z" fill="#000000"/>
      <path d="M168.5,360.5 L180.5,360.5 L180.5,372.5 L168.5,372.5 L168.5,360.5 z" fill-opacity="0" stroke="#000000" stroke-width="1"/>
    </g>
    <g>
      <path d="M180.5,360.5 L192.5,360.5 L192.5,372.5 L180.5,372.5 L180.5,360.5 z" fill="#000000"/>
      <path d="M180.5,360.5 L192.5,360.5 L192.5,372.5 L180.5,372.5 L180.5,360.5 z" fill-opacity="0" stroke="#000000" stroke-width="1"/>
    </g>
    <g>
      <path d="M156.5,360.5 L168.5,360.5 L168.5,372.5 L156.5,372.5 L156.5,360.5 z" fill="#000000"/>
      <path d="M156.5,360.5 L168.5,360.5 L168.5,372.5 L156.5,372.5 L156.5,360.5 z" fill-opacity="0" stroke="#000000" stroke-width="1"/>
    </g>
    <g>
      <path d="M144.5,348.5 L156.5,348.5 L156.5,360.5 L144.5,360.5 L144.5,348.5 z" fill="#000000"/>
      <path d="M144.5,348.5 L156.5,348.5 L156.5,360.5 L144.5,360.5 L144.5,348.5 z" fill-opacity="0" stroke="#000000" stroke-width="1"/>
    </g>
    <g>
      <path d="M144.5,360.5 L156.5,360.5 L156.5,372.5 L144.5,372.5 L144.5,360.5 z" fill="#000000"/>
      <path d="M144.5,360.5 L156.5,360.5 L156.5,372.5 L144.5,372.5 L144.5,360.5 z" fill-opacity="0" stroke="#000000" stroke-width="1"/>
    </g>
    <g>
      <path d="M168.5,372.5 L180.5,372.5 L180.5,384.5 L168.5,384.5 L168.5,372.5 z" fill="#000000"/>
      <path d="M168.5,372.5 L180.5,372.5 L180.5,384.5 L168.5,384.5 L168.5,372.5 z" fill-opacity="0" stroke="#000000" stroke-width="1"/>
    </g>
    <g>
      <path d="M156.5,372.5 L168.5,372.5 L168.5,384.5 L156.5,384.5 L156.5,372.5 z" fill="#000000"/>
      <path d="M156.5,372.5 L168.5,372.5 L168.5,384.5 L156.5,384.5 L156.5,372.5 z" fill-opacity="0" stroke="#000000" stroke-width="1"/>
    </g>
    <g>
      <path d="M144.5,372.5 L156.5,372.5 L156.5,384.5 L144.5,384.5 L144.5,372.5 z" fill="#000000"/>
      <path d="M144.5,372.5 L156.5,372.5 L156.5,384.5 L144.5,384.5 L144.5,372.5 z" fill-opacity="0" stroke="#000000" stroke-width="1"/>
    </g>
    <g>
      <path d="M144.5,384.5 L156.5,384.5 L156.5,396.5 L144.5,396.5 L144.5,384.5 z" fill="#000000"/>
      <path d="M144.5,384.5 L156.5,384.5 L156.5,396.5 L144.5,396.5 L144.5,384.5 z" fill-opacity="0" stroke="#000000" stroke-width="1"/>
    </g>
    <g>
      <path d="M132.5,360.5 L144.5,360.5 L144.5,372.5 L132.5,372.5 L132.5,360.5 z" fill="#000000"/>
      <path d="M132.5,360.5 L144.5,360.5 L144.5,372.5 L132.5,372.5 L132.5,360.5 z" fill-opacity="0" stroke="#000000" stroke-width="1"/>
    </g>
    <g>
      <path d="M132.5,372.5 L144.5,372.5 L144.5,384.5 L132.5,384.5 L132.5,372.5 z" fill="#000000"/>
      <path d="M132.5,372.5 L144.5,372.5 L144.5,384.5 L132.5,384.5 L132.5,372.5 z" fill-opacity="0" stroke="#000000" stroke-width="1"/>
    </g>
    <g>
      <path d="M132.5,384.5 L144.5,384.5 L144.5,396.5 L132.5,396.5 L132.5,384.5 z" fill="#000000"/>
      <path d="M132.5,384.5 L144.5,384.5 L144.5,396.5 L132.5,396.5 L132.5,384.5 z" fill-opacity="0" stroke="#000000" stroke-width="1"/>
    </g>
    <g>
      <path d="M120.5,372.5 L132.5,372.5 L132.5,384.5 L120.5,384.5 L120.5,372.5 z" fill="#000000"/>
      <path d="M120.5,372.5 L132.5,372.5 L132.5,384.5 L120.5,384.5 L120.5,372.5 z" fill-opacity="0" stroke="#000000" stroke-width="1"/>
    </g>
    <g>
      <path d="M120.5,384.5 L132.5,384.5 L132.5,396.5 L120.5,396.5 L120.5,384.5 z" fill="#000000"/>
      <path d="M120.5,384.5 L132.5,384.5 L132.5,396.5 L120.5,396.5 L120.5,384.5 z" fill-opacity="0" stroke="#000000" stroke-width="1"/>
    </g>
    <g>
      <path d="M108.5,372.5 L120.5,372.5 L120.5,384.5 L108.5,384.5 L108.5,372.5 z" fill="#000000"/>
      <path d="M108.5,372.5 L120.5,372.5 L120.5,384.5 L108.5,384.5 L108.5,372.5 z" fill-opacity="0" stroke="#000000" stroke-width="1"/>
    </g>
    <g>
      <path d="M48.5,348.5 L60.5,348.5 L60.5,360.5 L48.5,360.5 L48.5,348.5 z" fill="#000000"/>
      <path d="M48.5,348.5 L60.5,348.5 L60.5,360.5 L48.5,360.5 L48.5,348.5 z" fill-opacity="0" stroke="#000000" stroke-width="1"/>
    </g>
    <g>
      <path d="M48.5,360.5 L60.5,360.5 L60.5,372.5 L48.5,372.5 L48.5,360.5 z" fill="#000000"/>
      <path d="M48.5,360.5 L60.5,360.5 L60.5,372.5 L48.5,372.5 L48.5,360.5 z" fill-opacity="0" stroke="#000000" stroke-width="1"/>
    </g>
    <g>
      <path d="M60.5,372.5 L72.5,372.5 L72.5,384.5 L60.5,384.5 L60.5,372.5 z" fill="#000000"/>
      <path d="M60.5,372.5 L72.5,372.5 L72.5,384.5 L60.5,384.5 L60.5,372.5 z" fill-opacity="0" stroke="#000000" stroke-width="1"/>
    </g>
    <g>
      <path d="M72.5,384.5 L84.5,384.5 L84.5,396.5 L72.5,396.5 L72.5,384.5 z" fill="#000000"/>
      <path d="M72.5,384.5 L84.5,384.5 L84.5,396.5 L72.5,396.5 L72.5,384.5 z" fill-opacity="0" stroke="#000000" stroke-width="1"/>
    </g>
    <g>
      <path d="M84.5,396.5 L96.5,396.5 L96.5,408.5 L84.5,408.5 L84.5,396.5 z" fill="#000000"/>
      <path d="M84.5,396.5 L96.5,396.5 L96.5,408.5 L84.5,408.5 L84.5,396.5 z" fill-opacity="0" stroke="#000000" stroke-width="1"/>
    </g>
    <g>
      <path d="M96.5,396.5 L108.5,396.5 L108.5,408.5 L96.5,408.5 L96.5,396.5 z" fill="#000000"/>
      <path d="M96.5,396.5 L108.5,396.5 L108.5,408.5 L96.5,408.5 L96.5,396.5 z" fill-opacity="0" stroke="#000000" stroke-width="1"/>
    </g>
    <g>
      <path d="M108.5,408.5 L120.5,408.5 L120.5,420.5 L108.5,420.5 L108.5,408.5 z" fill="#000000"/>
      <path d="M108.5,408.5 L120.5,408.5 L120.5,420.5 L108.5,420.5 L108.5,408.5 z" fill-opacity="0" stroke="#000000" stroke-width="1"/>
    </g>
    <g>
      <path d="M108.5,420.5 L120.5,420.5 L120.5,432.5 L108.5,432.5 L108.5,420.5 z" fill="#000000"/>
      <path d="M108.5,420.5 L120.5,420.5 L120.5,432.5 L108.5,432.5 L108.5,420.5 z" fill-opacity="0" stroke="#000000" stroke-width="1"/>
    </g>
    <g>
      <path d="M120.5,420.5 L132.5,420.5 L132.5,432.5 L120.5,432.5 L120.5,420.5 z" fill="#000000"/>
      <path d="M120.5,420.5 L132.5,420.5 L132.5,432.5 L120.5,432.5 L120.5,420.5 z" fill-opacity="0" stroke="#000000" stroke-width="1"/>
    </g>
    <g>
      <path d="M132.5,420.5 L144.5,420.5 L144.5,432.5 L132.5,432.5 L132.5,420.5 z" fill="#000000"/>
      <path d="M132.5,420.5 L144.5,420.5 L144.5,432.5 L132.5,432.5 L132.5,420.5 z" fill-opacity="0" stroke="#000000" stroke-width="1"/>
    </g>
    <g>
      <path d="M120.5,432.5 L132.5,432.5 L132.5,444.5 L120.5,444.5 L120.5,432.5 z" fill="#000000"/>
      <path d="M120.5,432.5 L132.5,432.5 L132.5,444.5 L120.5,444.5 L120.5,432.5 z" fill-opacity="0" stroke="#000000" stroke-width="1"/>
    </g>
    <g>
      <path d="M156.5,408.5 L168.5,408.5 L168.5,420.5 L156.5,420.5 L156.5,408.5 z" fill="#000000"/>
      <path d="M156.5,408.5 L168.5,408.5 L168.5,420.5 L156.5,420.5 L156.5,408.5 z" fill-opacity="0" stroke="#000000" stroke-width="1"/>
    </g>
    <g>
      <path d="M168.5,396.5 L180.5,396.5 L180.5,408.5 L168.5,408.5 L168.5,396.5 z" fill="#000000"/>
      <path d="M168.5,396.5 L180.5,396.5 L180.5,408.5 L168.5,408.5 L168.5,396.5 z" fill-opacity="0" stroke="#000000" stroke-width="1"/>
    </g>
    <g>
      <path d="M180.5,396.5 L192.5,396.5 L192.5,408.5 L180.5,408.5 L180.5,396.5 z" fill="#000000"/>
      <path d="M180.5,396.5 L192.5,396.5 L192.5,408.5 L180.5,408.5 L180.5,396.5 z" fill-opacity="0" stroke="#000000" stroke-width="1"/>
    </g>
    <g>
      <path d="M192.5,384.5 L204.5,384.5 L204.5,396.5 L192.5,396.5 L192.5,384.5 z" fill="#000000"/>
      <path d="M192.5,384.5 L204.5,384.5 L204.5,396.5 L192.5,396.5 L192.5,384.5 z" fill-opacity="0" stroke="#000000" stroke-width="1"/>
    </g>
    <g>
      <path d="M204.5,372.5 L216.5,372.5 L216.5,384.5 L204.5,384.5 L204.5,372.5 z" fill="#000000"/>
      <path d="M204.5,372.5 L216.5,372.5 L216.5,384.5 L204.5,384.5 L204.5,372.5 z" fill-opacity="0" stroke="#000000" stroke-width="1"/>
    </g>
    <g>
      <path d="M204.5,384.5 L216.5,384.5 L216.5,396.5 L204.5,396.5 L204.5,384.5 z" fill="#000000"/>
      <path d="M204.5,384.5 L216.5,384.5 L216.5,396.5 L204.5,396.5 L204.5,384.5 z" fill-opacity="0" stroke="#000000" stroke-width="1"/>
    </g>
    <g>
      <path d="M204.5,396.5 L216.5,396.5 L216.5,408.5 L204.5,408.5 L204.5,396.5 z" fill="#000000"/>
      <path d="M204.5,396.5 L216.5,396.5 L216.5,408.5 L204.5,408.5 L204.5,396.5 z" fill-opacity="0" stroke="#000000" stroke-width="1"/>
    </g>
    <g>
      <path d="M216.5,408.5 L228.5,408.5 L228.5,420.5 L216.5,420.5 L216.5,408.5 z" fill="#000000"/>
      <path d="M216.5,408.5 L228.5,408.5 L228.5,420.5 L216.5,420.5 L216.5,408.5 z" fill-opacity="0" stroke="#000000" stroke-width="1"/>
    </g>
    <g>
      <path d="M204.5,420.5 L216.5,420.5 L216.5,432.5 L204.5,432.5 L204.5,420.5 z" fill="#000000"/>
      <path d="M204.5,420.5 L216.5,420.5 L216.5,432.5 L204.5,432.5 L204.5,420.5 z" fill-opacity="0" stroke="#000000" stroke-width="1"/>
    </g>
    <g>
      <path d="M192.5,432.5 L204.5,432.5 L204.5,444.5 L192.5,444.5 L192.5,432.5 z" fill="#000000"/>
      <path d="M192.5,432.5 L204.5,432.5 L204.5,444.5 L192.5,444.5 L192.5,432.5 z" fill-opacity="0" stroke="#000000" stroke-width="1"/>
    </g>
    <g>
      <path d="M180.5,444.5 L192.5,444.5 L192.5,456.5 L180.5,456.5 L180.5,444.5 z" fill="#000000"/>
      <path d="M180.5,444.5 L192.5,444.5 L192.5,456.5 L180.5,456.5 L180.5,444.5 z" fill-opacity="0" stroke="#000000" stroke-width="1"/>
    </g>
    <g>
      <path d="M168.5,456.5 L180.5,456.5 L180.5,468.5 L168.5,468.5 L168.5,456.5 z" fill="#000000"/>
      <path d="M168.5,456.5 L180.5,456.5 L180.5,468.5 L168.5,468.5 L168.5,456.5 z" fill-opacity="0" stroke="#000000" stroke-width="1"/>
    </g>
    <g>
      <path d="M180.5,456.5 L192.5,456.5 L192.5,468.5 L180.5,468.5 L180.5,456.5 z" fill="#000000"/>
      <path d="M180.5,456.5 L192.5,456.5 L192.5,468.5 L180.5,468.5 L180.5,456.5 z" fill-opacity="0" stroke="#000000" stroke-width="1"/>
    </g>
    <g>
      <path d="M144.5,468.5 L156.5,468.5 L156.5,480.5 L144.5,480.5 L144.5,468.5 z" fill="#000000"/>
      <path d="M144.5,468.5 L156.5,468.5 L156.5,480.5 L144.5,480.5 L144.5,468.5 z" fill-opacity="0" stroke="#000000" stroke-width="1"/>
    </g>
    <g>
      <path d="M156.5,468.5 L168.5,468.5 L168.5,480.5 L156.5,480.5 L156.5,468.5 z" fill="#000000"/>
      <path d="M156.5,468.5 L168.5,468.5 L168.5,480.5 L156.5,480.5 L156.5,468.5 z" fill-opacity="0" stroke="#000000" stroke-width="1"/>
    </g>
    <g>
      <path d="M132.5,456.5 L144.5,456.5 L144.5,468.5 L132.5,468.5 L132.5,456.5 z" fill="#000000"/>
      <path d="M132.5,456.5 L144.5,456.5 L144.5,468.5 L132.5,468.5 L132.5,456.5 z" fill-opacity="0" stroke="#000000" stroke-width="1"/>
    </g>
    <g>
      <path d="M120.5,456.5 L132.5,456.5 L132.5,468.5 L120.5,468.5 L120.5,456.5 z" fill="#000000"/>
      <path d="M120.5,456.5 L132.5,456.5 L132.5,468.5 L120.5,468.5 L120.5,456.5 z" fill-opacity="0" stroke="#000000" stroke-width="1"/>
    </g>
    <g>
      <path d="M108.5,444.5 L120.5,444.5 L120.5,456.5 L108.5,456.5 L108.5,444.5 z" fill="#000000"/>
      <path d="M108.5,444.5 L120.5,444.5 L120.5,456.5 L108.5,456.5 L108.5,444.5 z" fill-opacity="0" stroke="#000000" stroke-width="1"/>
    </g>
    <g>
      <path d="M108.5,456.5 L120.5,456.5 L120.5,468.5 L108.5,468.5 L108.5,456.5 z" fill="#000000"/>
      <path d="M108.5,456.5 L120.5,456.5 L120.5,468.5 L108.5,468.5 L108.5,456.5 z" fill-opacity="0" stroke="#000000" stroke-width="1"/>
    </g>
    <g>
      <path d="M96.5,444.5 L108.5,444.5 L108.5,456.5 L96.5,456.5 L96.5,444.5 z" fill="#000000"/>
      <path d="M96.5,444.5 L108.5,444.5 L108.5,456.5 L96.5,456.5 L96.5,444.5 z" fill-opacity="0" stroke="#000000" stroke-width="1"/>
    </g>
    <g>
      <path d="M84.5,444.5 L96.5,444.5 L96.5,456.5 L84.5,456.5 L84.5,444.5 z" fill="#000000"/>
      <path d="M84.5,444.5 L96.5,444.5 L96.5,456.5 L84.5,456.5 L84.5,444.5 z" fill-opacity="0" stroke="#000000" stroke-width="1"/>
    </g>
    <g>
      <path d="M72.5,432.5 L84.5,432.5 L84.5,444.5 L72.5,444.5 L72.5,432.5 z" fill="#000000"/>
      <path d="M72.5,432.5 L84.5,432.5 L84.5,444.5 L72.5,444.5 L72.5,432.5 z" fill-opacity="0" stroke="#000000" stroke-width="1"/>
    </g>
    <g>
      <path d="M60.5,432.5 L72.5,432.5 L72.5,444.5 L60.5,444.5 L60.5,432.5 z" fill="#000000"/>
      <path d="M60.5,432.5 L72.5,432.5 L72.5,444.5 L60.5,444.5 L60.5,432.5 z" fill-opacity="0" stroke="#000000" stroke-width="1"/>
    </g>
    <g>
      <path d="M60.5,420.5 L72.5,420.5 L72.5,432.5 L60.5,432.5 L60.5,420.5 z" fill="#000000"/>
      <path d="M60.5,420.5 L72.5,420.5 L72.5,432.5 L60.5,432.5 L60.5,420.5 z" fill-opacity="0" stroke="#000000" stroke-width="1"/>
    </g>
    <g>
      <path d="M48.5,408.5 L60.5,408.5 L60.5,420.5 L48.5,420.5 L48.5,408.5 z" fill="#000000"/>
      <path d="M48.5,408.5 L60.5,408.5 L60.5,420.5 L48.5,420.5 L48.5,408.5 z" fill-opacity="0" stroke="#000000" stroke-width="1"/>
    </g>
    <g>
      <path d="M36.5,396.5 L48.5,396.5 L48.5,408.5 L36.5,408.5 L36.5,396.5 z" fill="#000000"/>
      <path d="M36.5,396.5 L48.5,396.5 L48.5,408.5 L36.5,408.5 L36.5,396.5 z" fill-opacity="0" stroke="#000000" stroke-width="1"/>
    </g>
    <g>
      <path d="M36.5,384.5 L48.5,384.5 L48.5,396.5 L36.5,396.5 L36.5,384.5 z" fill="#000000"/>
      <path d="M36.5,384.5 L48.5,384.5 L48.5,396.5 L36.5,396.5 L36.5,384.5 z" fill-opacity="0" stroke="#000000" stroke-width="1"/>
    </g>
    <g>
      <path d="M24.5,372.5 L36.5,372.5 L36.5,384.5 L24.5,384.5 L24.5,372.5 z" fill="#000000"/>
      <path d="M24.5,372.5 L36.5,372.5 L36.5,384.5 L24.5,384.5 L24.5,372.5 z" fill-opacity="0" stroke="#000000" stroke-width="1"/>
    </g>
    <g>
      <path d="M24.5,360.5 L36.5,360.5 L36.5,372.5 L24.5,372.5 L24.5,360.5 z" fill="#000000"/>
      <path d="M24.5,360.5 L36.5,360.5 L36.5,372.5 L24.5,372.5 L24.5,360.5 z" fill-opacity="0" stroke="#000000" stroke-width="1"/>
    </g>
    <g>
      <path d="M36.5,348.5 L48.5,348.5 L48.5,360.5 L36.5,360.5 L36.5,348.5 z" fill="#000000"/>
      <path d="M36.5,348.5 L48.5,348.5 L48.5,360.5 L36.5,360.5 L36.5,348.5 z" fill-opacity="0" stroke="#000000" stroke-width="1"/>
    </g>
    <g>
      <path d="M36.5,336.5 L48.5,336.5 L48.5,348.5 L36.5,348.5 L36.5,336.5 z" fill="#000000"/>
      <path d="M36.5,336.5 L48.5,336.5 L48.5,348.5 L36.5,348.5 L36.5,336.5 z" fill-opacity="0" stroke="#000000" stroke-width="1"/>
    </g>
    <g>
      <path d="M36.5,360.5 L48.5,360.5 L48.5,372.5 L36.5,372.5 L36.5,360.5 z" fill="#000000"/>
      <path d="M36.5,360.5 L48.5,360.5 L48.5,372.5 L36.5,372.5 L36.5,360.5 z" fill-opacity="0" stroke="#000000" stroke-width="1"/>
    </g>
    <g>
      <path d="M192.5,408.5 L204.5,408.5 L204.5,420.5 L192.5,420.5 L192.5,408.5 z" fill="#000000"/>
      <path d="M192.5,408.5 L204.5,408.5 L204.5,420.5 L192.5,420.5 L192.5,408.5 z" fill-opacity="0" stroke="#000000" stroke-width="1"/>
    </g>
    <g>
      <path d="M192.5,408.5 L204.5,408.5 L204.5,420.5 L192.5,420.5 L192.5,408.5 z" fill="#000000"/>
      <path d="M192.5,408.5 L204.5,408.5 L204.5,420.5 L192.5,420.5 L192.5,408.5 z" fill-opacity="0" stroke="#000000" stroke-width="1"/>
    </g>
    <g>
      <path d="M192.5,408.5 L204.5,408.5 L204.5,420.5 L192.5,420.5 L192.5,408.5 z" fill="#000000"/>
      <path d="M192.5,408.5 L204.5,408.5 L204.5,420.5 L192.5,420.5 L192.5,408.5 z" fill-opacity="0" stroke="#000000" stroke-width="1"/>
    </g>
    <g>
      <path d="M204.5,408.5 L216.5,408.5 L216.5,420.5 L204.5,420.5 L204.5,408.5 z" fill="#000000"/>
      <path d="M204.5,408.5 L216.5,408.5 L216.5,420.5 L204.5,420.5 L204.5,408.5 z" fill-opacity="0" stroke="#000000" stroke-width="1"/>
    </g>
    <g>
      <path d="M192.5,396.5 L204.5,396.5 L204.5,408.5 L192.5,408.5 L192.5,396.5 z" fill="#000000"/>
      <path d="M192.5,396.5 L204.5,396.5 L204.5,408.5 L192.5,408.5 L192.5,396.5 z" fill-opacity="0" stroke="#000000" stroke-width="1"/>
    </g>
    <g>
      <path d="M180.5,408.5 L192.5,408.5 L192.5,420.5 L180.5,420.5 L180.5,408.5 z" fill="#000000"/>
      <path d="M180.5,408.5 L192.5,408.5 L192.5,420.5 L180.5,420.5 L180.5,408.5 z" fill-opacity="0" stroke="#000000" stroke-width="1"/>
    </g>
    <g>
      <path d="M180.5,420.5 L192.5,420.5 L192.5,432.5 L180.5,432.5 L180.5,420.5 z" fill="#000000"/>
      <path d="M180.5,420.5 L192.5,420.5 L192.5,432.5 L180.5,432.5 L180.5,420.5 z" fill-opacity="0" stroke="#000000" stroke-width="1"/>
    </g>
    <g>
      <path d="M168.5,408.5 L180.5,408.5 L180.5,420.5 L168.5,420.5 L168.5,408.5 z" fill="#000000"/>
      <path d="M168.5,408.5 L180.5,408.5 L180.5,420.5 L168.5,420.5 L168.5,408.5 z" fill-opacity="0" stroke="#000000" stroke-width="1"/>
    </g>
    <g>
      <path d="M144.5,420.5 L156.5,420.5 L156.5,432.5 L144.5,432.5 L144.5,420.5 z" fill="#000000"/>
      <path d="M144.5,420.5 L156.5,420.5 L156.5,432.5 L144.5,432.5 L144.5,420.5 z" fill-opacity="0" stroke="#000000" stroke-width="1"/>
    </g>
    <g>
      <path d="M192.5,420.5 L204.5,420.5 L204.5,432.5 L192.5,432.5 L192.5,420.5 z" fill="#000000"/>
      <path d="M192.5,420.5 L204.5,420.5 L204.5,432.5 L192.5,432.5 L192.5,420.5 z" fill-opacity="0" stroke="#000000" stroke-width="1"/>
    </g>
    <g>
      <path d="M156.5,420.5 L168.5,420.5 L168.5,432.5 L156.5,432.5 L156.5,420.5 z" fill="#000000"/>
      <path d="M156.5,420.5 L168.5,420.5 L168.5,432.5 L156.5,432.5 L156.5,420.5 z" fill-opacity="0" stroke="#000000" stroke-width="1"/>
    </g>
    <g>
      <path d="M168.5,420.5 L180.5,420.5 L180.5,432.5 L168.5,432.5 L168.5,420.5 z" fill="#000000"/>
      <path d="M168.5,420.5 L180.5,420.5 L180.5,432.5 L168.5,432.5 L168.5,420.5 z" fill-opacity="0" stroke="#000000" stroke-width="1"/>
    </g>
    <g>
      <path d="M180.5,432.5 L192.5,432.5 L192.5,444.5 L180.5,444.5 L180.5,432.5 z" fill="#000000"/>
      <path d="M180.5,432.5 L192.5,432.5 L192.5,444.5 L180.5,444.5 L180.5,432.5 z" fill-opacity="0" stroke="#000000" stroke-width="1"/>
    </g>
    <g>
      <path d="M168.5,432.5 L180.5,432.5 L180.5,444.5 L168.5,444.5 L168.5,432.5 z" fill="#000000"/>
      <path d="M168.5,432.5 L180.5,432.5 L180.5,444.5 L168.5,444.5 L168.5,432.5 z" fill-opacity="0" stroke="#000000" stroke-width="1"/>
    </g>
    <g>
      <path d="M156.5,432.5 L168.5,432.5 L168.5,444.5 L156.5,444.5 L156.5,432.5 z" fill="#000000"/>
      <path d="M156.5,432.5 L168.5,432.5 L168.5,444.5 L156.5,444.5 L156.5,432.5 z" fill-opacity="0" stroke="#000000" stroke-width="1"/>
    </g>
    <g>
      <path d="M144.5,432.5 L156.5,432.5 L156.5,444.5 L144.5,444.5 L144.5,432.5 z" fill="#000000"/>
      <path d="M144.5,432.5 L156.5,432.5 L156.5,444.5 L144.5,444.5 L144.5,432.5 z" fill-opacity="0" stroke="#000000" stroke-width="1"/>
    </g>
    <g>
      <path d="M144.5,444.5 L156.5,444.5 L156.5,456.5 L144.5,456.5 L144.5,444.5 z" fill="#000000"/>
      <path d="M144.5,444.5 L156.5,444.5 L156.5,456.5 L144.5,456.5 L144.5,444.5 z" fill-opacity="0" stroke="#000000" stroke-width="1"/>
    </g>
    <g>
      <path d="M156.5,444.5 L168.5,444.5 L168.5,456.5 L156.5,456.5 L156.5,444.5 z" fill="#000000"/>
      <path d="M156.5,444.5 L168.5,444.5 L168.5,456.5 L156.5,456.5 L156.5,444.5 z" fill-opacity="0" stroke="#000000" stroke-width="1"/>
    </g>
    <g>
      <path d="M168.5,444.5 L180.5,444.5 L180.5,456.5 L168.5,456.5 L168.5,444.5 z" fill="#000000"/>
      <path d="M168.5,444.5 L180.5,444.5 L180.5,456.5 L168.5,456.5 L168.5,444.5 z" fill-opacity="0" stroke="#000000" stroke-width="1"/>
    </g>
    <g>
      <path d="M144.5,456.5 L156.5,456.5 L156.5,468.5 L144.5,468.5 L144.5,456.5 z" fill="#000000"/>
      <path d="M144.5,456.5 L156.5,456.5 L156.5,468.5 L144.5,468.5 L144.5,456.5 z" fill-opacity="0" stroke="#000000" stroke-width="1"/>
    </g>
    <g>
      <path d="M156.5,456.5 L168.5,456.5 L168.5,468.5 L156.5,468.5 L156.5,456.5 z" fill="#000000"/>
      <path d="M156.5,456.5 L168.5,456.5 L168.5,468.5 L156.5,468.5 L156.5,456.5 z" fill-opacity="0" stroke="#000000" stroke-width="1"/>
    </g>
    <g>
      <path d="M132.5,432.5 L144.5,432.5 L144.5,444.5 L132.5,444.5 L132.5,432.5 z" fill="#000000"/>
      <path d="M132.5,432.5 L144.5,432.5 L144.5,444.5 L132.5,444.5 L132.5,432.5 z" fill-opacity="0" stroke="#000000" stroke-width="1"/>
    </g>
    <g>
      <path d="M132.5,444.5 L144.5,444.5 L144.5,456.5 L132.5,456.5 L132.5,444.5 z" fill="#000000"/>
      <path d="M132.5,444.5 L144.5,444.5 L144.5,456.5 L132.5,456.5 L132.5,444.5 z" fill-opacity="0" stroke="#000000" stroke-width="1"/>
    </g>
    <g>
      <path d="M84.5,408.5 L96.5,408.5 L96.5,420.5 L84.5,420.5 L84.5,408.5 z" fill="#000000"/>
      <path d="M84.5,408.5 L96.5,408.5 L96.5,420.5 L84.5,420.5 L84.5,408.5 z" fill-opacity="0" stroke="#000000" stroke-width="1"/>
    </g>
    <g>
      <path d="M120.5,444.5 L132.5,444.5 L132.5,456.5 L120.5,456.5 L120.5,444.5 z" fill="#000000"/>
      <path d="M120.5,444.5 L132.5,444.5 L132.5,456.5 L120.5,456.5 L120.5,444.5 z" fill-opacity="0" stroke="#000000" stroke-width="1"/>
    </g>
    <g>
      <path d="M108.5,432.5 L120.5,432.5 L120.5,444.5 L108.5,444.5 L108.5,432.5 z" fill="#000000"/>
      <path d="M108.5,432.5 L120.5,432.5 L120.5,444.5 L108.5,444.5 L108.5,432.5 z" fill-opacity="0" stroke="#000000" stroke-width="1"/>
    </g>
    <g>
      <path d="M96.5,420.5 L108.5,420.5 L108.5,432.5 L96.5,432.5 L96.5,420.5 z" fill="#000000"/>
      <path d="M96.5,420.5 L108.5,420.5 L108.5,432.5 L96.5,432.5 L96.5,420.5 z" fill-opacity="0" stroke="#000000" stroke-width="1"/>
    </g>
    <g>
      <path d="M96.5,408.5 L108.5,408.5 L108.5,420.5 L96.5,420.5 L96.5,408.5 z" fill="#000000"/>
      <path d="M96.5,408.5 L108.5,408.5 L108.5,420.5 L96.5,420.5 L96.5,408.5 z" fill-opacity="0" stroke="#000000" stroke-width="1"/>
    </g>
    <g>
      <path d="M96.5,432.5 L108.5,432.5 L108.5,444.5 L96.5,444.5 L96.5,432.5 z" fill="#000000"/>
      <path d="M96.5,432.5 L108.5,432.5 L108.5,444.5 L96.5,444.5 L96.5,432.5 z" fill-opacity="0" stroke="#000000" stroke-width="1"/>
    </g>
    <g>
      <path d="M144.5,408.5 L156.5,408.5 L156.5,420.5 L144.5,420.5 L144.5,408.5 z" fill="#000000"/>
      <path d="M144.5,408.5 L156.5,408.5 L156.5,420.5 L144.5,420.5 L144.5,408.5 z" fill-opacity="0" stroke="#000000" stroke-width="1"/>
    </g>
    <g>
      <path d="M84.5,432.5 L96.5,432.5 L96.5,444.5 L84.5,444.5 L84.5,432.5 z" fill="#000000"/>
      <path d="M84.5,432.5 L96.5,432.5 L96.5,444.5 L84.5,444.5 L84.5,432.5 z" fill-opacity="0" stroke="#000000" stroke-width="1"/>
    </g>
    <g>
      <path d="M84.5,420.5 L96.5,420.5 L96.5,432.5 L84.5,432.5 L84.5,420.5 z" fill="#000000"/>
      <path d="M84.5,420.5 L96.5,420.5 L96.5,432.5 L84.5,432.5 L84.5,420.5 z" fill-opacity="0" stroke="#000000" stroke-width="1"/>
    </g>
    <g>
      <path d="M72.5,420.5 L84.5,420.5 L84.5,432.5 L72.5,432.5 L72.5,420.5 z" fill="#000000"/>
      <path d="M72.5,420.5 L84.5,420.5 L84.5,432.5 L72.5,432.5 L72.5,420.5 z" fill-opacity="0" stroke="#000000" stroke-width="1"/>
    </g>
    <g>
      <path d="M72.5,408.5 L84.5,408.5 L84.5,420.5 L72.5,420.5 L72.5,408.5 z" fill="#000000"/>
      <path d="M72.5,408.5 L84.5,408.5 L84.5,420.5 L72.5,420.5 L72.5,408.5 z" fill-opacity="0" stroke="#000000" stroke-width="1"/>
    </g>
    <g>
      <path d="M72.5,396.5 L84.5,396.5 L84.5,408.5 L72.5,408.5 L72.5,396.5 z" fill="#000000"/>
      <path d="M72.5,396.5 L84.5,396.5 L84.5,408.5 L72.5,408.5 L72.5,396.5 z" fill-opacity="0" stroke="#000000" stroke-width="1"/>
    </g>
    <g>
      <path d="M60.5,408.5 L72.5,408.5 L72.5,420.5 L60.5,420.5 L60.5,408.5 z" fill="#000000"/>
      <path d="M60.5,408.5 L72.5,408.5 L72.5,420.5 L60.5,420.5 L60.5,408.5 z" fill-opacity="0" stroke="#000000" stroke-width="1"/>
    </g>
    <g>
      <path d="M60.5,384.5 L72.5,384.5 L72.5,396.5 L60.5,396.5 L60.5,384.5 z" fill="#000000"/>
      <path d="M60.5,384.5 L72.5,384.5 L72.5,396.5 L60.5,396.5 L60.5,384.5 z" fill-opacity="0" stroke="#000000" stroke-width="1"/>
    </g>
    <g>
      <path d="M60.5,396.5 L72.5,396.5 L72.5,408.5 L60.5,408.5 L60.5,396.5 z" fill="#000000"/>
      <path d="M60.5,396.5 L72.5,396.5 L72.5,408.5 L60.5,408.5 L60.5,396.5 z" fill-opacity="0" stroke="#000000" stroke-width="1"/>
    </g>
    <g>
      <path d="M48.5,396.5 L60.5,396.5 L60.5,408.5 L48.5,408.5 L48.5,396.5 z" fill="#000000"/>
      <path d="M48.5,396.5 L60.5,396.5 L60.5,408.5 L48.5,408.5 L48.5,396.5 z" fill-opacity="0" stroke="#000000" stroke-width="1"/>
    </g>
    <g>
      <path d="M48.5,384.5 L60.5,384.5 L60.5,396.5 L48.5,396.5 L48.5,384.5 z" fill="#000000"/>
      <path d="M48.5,384.5 L60.5,384.5 L60.5,396.5 L48.5,396.5 L48.5,384.5 z" fill-opacity="0" stroke="#000000" stroke-width="1"/>
    </g>
    <g>
      <path d="M48.5,372.5 L60.5,372.5 L60.5,384.5 L48.5,384.5 L48.5,372.5 z" fill="#000000"/>
      <path d="M48.5,372.5 L60.5,372.5 L60.5,384.5 L48.5,384.5 L48.5,372.5 z" fill-opacity="0" stroke="#000000" stroke-width="1"/>
    </g>
    <g>
      <path d="M36.5,372.5 L48.5,372.5 L48.5,384.5 L36.5,384.5 L36.5,372.5 z" fill="#000000"/>
      <path d="M36.5,372.5 L48.5,372.5 L48.5,384.5 L36.5,384.5 L36.5,372.5 z" fill-opacity="0" stroke="#000000" stroke-width="1"/>
    </g>
    <g>
      <path d="M12.5,444.5 L24.5,444.5 L24.5,456.5 L12.5,456.5 L12.5,444.5 z" fill="#000000"/>
      <path d="M12.5,444.5 L24.5,444.5 L24.5,456.5 L12.5,456.5 L12.5,444.5 z" fill-opacity="0" stroke="#000000" stroke-width="1"/>
    </g>
    <g>
      <path d="M0.5,444.5 L12.5,444.5 L12.5,456.5 L0.5,456.5 L0.5,444.5 z" fill="#000000"/>
      <path d="M0.5,444.5 L12.5,444.5 L12.5,456.5 L0.5,456.5 L0.5,444.5 z" fill-opacity="0" stroke="#000000" stroke-width="1"/>
    </g>
    <g>
      <path d="M12.5,456.5 L24.5,456.5 L24.5,468.5 L12.5,468.5 L12.5,456.5 z" fill="#000000"/>
      <path d="M12.5,456.5 L24.5,456.5 L24.5,468.5 L12.5,468.5 L12.5,456.5 z" fill-opacity="0" stroke="#000000" stroke-width="1"/>
    </g>
    <g>
      <path d="M24.5,456.5 L36.5,456.5 L36.5,468.5 L24.5,468.5 L24.5,456.5 z" fill="#000000"/>
      <path d="M24.5,456.5 L36.5,456.5 L36.5,468.5 L24.5,468.5 L24.5,456.5 z" fill-opacity="0" stroke="#000000" stroke-width="1"/>
    </g>
    <g>
      <path d="M24.5,444.5 L36.5,444.5 L36.5,456.5 L24.5,456.5 L24.5,444.5 z" fill="#000000"/>
      <path d="M24.5,444.5 L36.5,444.5 L36.5,456.5 L24.5,456.5 L24.5,444.5 z" fill-opacity="0" stroke="#000000" stroke-width="1"/>
    </g>
    <g>
      <path d="M24.5,468.5 L36.5,468.5 L36.5,480.5 L24.5,480.5 L24.5,468.5 z" fill="#000000"/>
      <path d="M24.5,468.5 L36.5,468.5 L36.5,480.5 L24.5,480.5 L24.5,468.5 z" fill-opacity="0" stroke="#000000" stroke-width="1"/>
    </g>
    <g>
      <path d="M36.5,468.5 L48.5,468.5 L48.5,480.5 L36.5,480.5 L36.5,468.5 z" fill="#000000"/>
      <path d="M36.5,468.5 L48.5,468.5 L48.5,480.5 L36.5,480.5 L36.5,468.5 z" fill-opacity="0" stroke="#000000" stroke-width="1"/>
    </g>
    <g>
      <path d="M12.5,432.5 L24.5,432.5 L24.5,444.5 L12.5,444.5 L12.5,432.5 z" fill="#000000"/>
      <path d="M12.5,432.5 L24.5,432.5 L24.5,444.5 L12.5,444.5 L12.5,432.5 z" fill-opacity="0" stroke="#000000" stroke-width="1"/>
    </g>
    <g>
      <path d="M12.5,420.5 L24.5,420.5 L24.5,432.5 L12.5,432.5 L12.5,420.5 z" fill="#000000"/>
      <path d="M12.5,420.5 L24.5,420.5 L24.5,432.5 L12.5,432.5 L12.5,420.5 z" fill-opacity="0" stroke="#000000" stroke-width="1"/>
    </g>
    <g>
      <path d="M24.5,432.5 L36.5,432.5 L36.5,444.5 L24.5,444.5 L24.5,432.5 z" fill="#000000"/>
      <path d="M24.5,432.5 L36.5,432.5 L36.5,444.5 L24.5,444.5 L24.5,432.5 z" fill-opacity="0" stroke="#000000" stroke-width="1"/>
    </g>
    <g>
      <path d="M0.5,408.5 L12.5,408.5 L12.5,420.5 L0.5,420.5 L0.5,408.5 z" fill="#000000"/>
      <path d="M0.5,408.5 L12.5,408.5 L12.5,420.5 L0.5,420.5 L0.5,408.5 z" fill-opacity="0" stroke="#000000" stroke-width="1"/>
    </g>
    <g>
      <path d="M0.5,192.5 L12.5,192.5 L12.5,204.5 L0.5,204.5 L0.5,192.5 z" fill="#FF0000"/>
      <path d="M0.5,192.5 L12.5,192.5 L12.5,204.5 L0.5,204.5 L0.5,192.5 z" fill-opacity="0" stroke="#000000" stroke-width="1"/>
    </g>
  </g>
</svg>
